<svg xmlns="http://www.w3.org/2000/svg" xml:space="preserve" viewBox="0 0 1417 1417" preserveAspectRatio="xMidYMid meet" version="1.2" baseProfile="tiny-ps"><title>Groovin' Around</title><path fill="#e8d040" d="M162 1418H1V1h280l19 11 7 7 32 50 48 72 60 88 37 55 50 73 29 42 18 26 3 9-1 14q3 23 25 30c11 4 22-3 24-15l-1-15q-6-20-25-25-8-2-11-8l-16-29-47-80-28-49-25-42-20-35-33-56-26-43-11-20 1-1 36 18 48 24 50 24 63 31 48 23 67 33 59 28q4 2 4 7l5 9q12 19 35 16c12-1 20-12 17-23-6-19-29-31-47-23h-5l-6-4-92-53-70-41-69-40-52-30-68-39-36-19h1041v1417h-150l-1-142v-250l-1-9v-1q-3-10-14-11H178q-9 2-13 10v1l-1 1-1 3v1l-2 8v280zm819-868v-2l1-4 8-27-1-6 1-15-1-4v-1q-6-20-23-23-39-2-65 26c-7 7-5 17 4 22l8 4q22 12 29 36a116 116 0 0 1-8 81q-5 10-12 1l-12-27-25-90-3-5-1-9-2-3v-31l-6-1h-59l-21-1-3 2q-5 2-2 5c9 12 12 26 17 40l3 4v3l-1 4h-2l-1-2a93 93 0 0 0-76-57q-35-4-64 15-31 19-43 52l-5 13q-14-65-77-78-63-9-102 42l1-6 7-13q5-15-7-18l-16-5q-32-6-54 19l-10 14-3 2-2-4v-9q0-18-19-19h-58q-7 0-4 7 7 11 7 23v135q-1 9-5 20l-2 5 6 2 80-1q5-2 2-5-7-10-6-24l-1-7v-68q0-12 4-22l5-9c9-6 30-7 37 5l8 11q5 6 10 0l5-5 1 1-1 5a98 98 0 0 0 63 117q20 7 42 4a104 104 0 0 0 86-76l2-5 2 3q5 30 28 51 29 28 69 28l9-2q19-2 35-11 26-15 40-40 14-23 14-48l-2-29 2 1 4 8v3l1 7 6 12-1 1v3l2 5 2 2v4l2 3-1 2 2 6v1l3 6-1 1v2l1 3 1 2 1 4v3l4 7v4q3 18 16 29 4 5 10 3l1 1 4 1h56l4-2 2 1 5-2 3-3 3-2 2-1 1-3 3-5 3-10 1-2 2-6 1-3 1-2v-3l1-1 2-6 6-15 3-13 1-1 6-18 1-3 1-3 1-3 1-3 1-2zm59 10v-2q4-6 3-14h1l1-9 2-1v-5l1-3 1-9 2-7v-4l1-3v-1l2-6q7-9-5-16l-3-1h-3l-7 1-1-1q-8 2-13 8l-7-3h-3l-7-1-11 3q7 8 14 8 14 2 27-4h6l-1 5c-4 15-12 28-11 43l-1 3-8 24-14 43-8 27q-4 16 10 23c12 5 26-1 30-11l10-26 8-18q4-9 14-7 4 0 4-4l-4-8-12-12-4-2-3-2q-6-1-7 5c-2 4-2 9-9 8l1-1-2-3v-5l1-3 3-5h2zm31-88 1 4q7 12 6 25v145l-5 10-3 5 6 2h69l12-1q6-1 2-6-4-9-5-18l-1-89q-1-15 10-26c8-7 19-5 23 3q4 9 4 19v35l-1 2v48l1 5-1 1v8l-2 4v3l-5 7v3h3l16 1h46l14 1 5-2 5-1v-3l-4-9-2-3-1-8v-28l1-41-2-3v-2l1-38-2-3v-6l-1-6-1-6-1-3-2-8-2-3q-9-17-27-21-10-2-20-1-24 1-39 19l-12 14-4 2-1-4-3-19q-2-8-10-8zm40 484h41l-6-20-1-89-2-29q-2-18-15-29c-14-12-38-9-53-1q-12 8-20 20-2 6-10 7v-11c-2-13-3-19-20-19l-123 1h-7q9 12 9 26v73q1 14-8 25-6 7-17 6-8-2-9-12l-1-11-1-69c0-13-1-26 8-37h-79l6 20 1 88 1 28q2 19 16 31 21 13 44 4 17-6 27-21 3-7 12-10v15q2 17 16 15l127-1h6c-9-12-8-25-8-38v-34l1-35q0-11 9-19c7-6 20-6 23 5l2 15 1 76q1 16-8 30zm-823-16-11 20h1l86-1c10-5 11-13 12-23q-1-24-10-45l-7-18h33l3 3 2 12 5 36q3 18-7 35h173q-4-5-5-11-3-7-3-16l1-79c2-22 21-24 34-19q7 4 11 12c5 7 10 10 15 1l3-4 17-37q8-13-7-19c-19-7-40-4-55 12l-14 17q-1 2-3 1l-2-3v-9q-1-19-18-18l-50 1h-3q4 11 5 22l1 127-3 16h-2l-3-4-14-39a1527 1527 0 0 1-37-155c-2-13-7-26 1-39H332l4 19-6 36-18 83zm955 13 16-17 4-4 2 5 2 10q2 8 11 8h55l4-1q-9-15-7-33l-1-205q-1-12-12-9l-30 11-33 15-4 4 4 4q10 4 10 16v33l-2 9q-5-1-9-5-14-14-34-13-30 0-49 24-18 28-20 60-1 19 4 37c7 28 21 49 51 56q20 6 38-5M695 786l-16 4a91 91 0 0 0-56 98q5 35 33 57 24 18 53 17 40-1 65-31 25-26 24-63 0-41-32-66a84 84 0 0 0-71-16M76 504l-1 6 1 47q2 35 21 65 21 34 58 46a120 120 0 0 0 57 0q37-14 55-50 5-9 7-20v-66c-1-22-18-34-37-34q-17 0-32 7-19 10-37 0c-7-5-16-1-19 7q-3 14 1 26 9 25 35 29t42-16l13-16q3-4 8-4 3 1 5 7 4 15 0 30-5 23-25 33-11 5-23 3-15 1-27-5-25-11-40-35-31-46-29-102 1-9 6-18 4-7 13-7 18 0 34 9l30 15 24 7q20 5 33-8 17-16 23-39l4-21q-2-12-14-8l-5 2-15 6c-13 3-26-1-39-4q-22-7-46-4-39 10-59 45-17 30-22 67m1194-101c-11 18-3 47 20 53q3 0 5 3c2 5 0 16-8 19l-4 3 5 3q22 3 34-14 17-19 14-45 1-19-13-31c-17-14-40-10-53 9m-199 1-1-3c-7-23-33-32-54-24q-24 10-25 39 2 34 34 39c20 3 41-6 46-27z"/><path fill="#050404" d="M745 1005h507l5 7q7 0 9 4v2l1 18v37l-1 186v44l1 30-1 31v54h-77l-5-2-4-3q13 0 7-11h-6v10l-6-13c5-2 2-5 2-10l-8 4-1-8-1-9h-5l-2 5-1-2-5-6q8-1 3-10l-4 1-2 7-2-4-3-4h-3c-7-2-3-9-5-13q-4-3-6 2v3l-3-1q0-7-7-4l-6-4c5-2 2-5 3-8l-5 1-2 8-3-3v-6l-1-3 2-11q-11-3-6 11l4 1v2q-5-1-5 4h-2l-5-4c-6 2-12-1-18-1v-1l2-8q1-7-7-4l1 12h-2l-2-2 1-1-1-9-6-1v12h-4v-11q-7-2-6 4v8l-4 2-16 1-2 1-1-1-5-2 1-1q6 0 4-10l-6-4v16l-1 4h-3q1-5-4-4l-2 5q0 4-4 4v-12l1-7q1-7-7-4v11l5 1v2c-8 0-4 5-5 8l6 1c-4 1-7 5-12 2q-4-1-4 4l-2 4-1-1v-4q-5-4-6 0v7q-2 7-7 4l-2 1-4 8v-2l-1-6-6 2 1 6 5 2-6 2-1 5h-2v-4h-7v8l3 3-5 7h-1v-4h-6c0 4-3 9 4 8l-4 4-1 3q2 9-7 10l-2 2H768c-2-5-3-1-4 0h-2l-1-2v2h-10q-4-4-6 0h-12l-2-2-1 2h-12l-1-5 1-10-1-1-5-1-1 1 1 11 4 5-8-1v-4l1-11h-8l2 11h4v1l-1 4h-14l-3-2h-6l-1 2h-2l-2-2-1 2H493v-8l-1-8h-5q-4-2-3-5 1-8-8-9l1-1q10 1 6-11-9-3-7 5l-1 3h-2v-4q0-7-6-4l-4-4v-8h-4c-5 4-6-1-8-2l2-3v-8l-5-1-2 8-2-4-2-4q-3-1-7 1l-5-2q-6-1-5-7l-3-4h-3l-3 6-2-5-8 1-12-3v-11l-3-3-2 3v9l-1 1h-2l-1-12-6-1-1 9q0 4-3 2v-10l-2-1-3 1h-1v10l-3-2-2-9h-4l-1 2v11h-3l-1-2v-8l-2-3-4 3 1 9 2 2c-7 0-13 3-20 1h-1l-3 4-3-4c-7-1-5 4-5 7l-11 6-8-2v2l-4 7v-6l-6-2v9l2 3-6 3-2-2-4 1v1q0 6-2 9-3 2-7 2l-3 10-2-10h-6v11h8l-7 3-1 2v6l-3 4-8-1 3 12v5h-53q-3-4-5 0h-31v-396l13-10 1-7zm-463 210h1l5-1v-1l-4-3 2-2c2-2 3-7 7-7v-1l2-10c0-7 0-7 6-8l1-9-2-10 2-1 4 1 1-6-1-10 1-2 1-1h1l5-3c0-4 2-8-2-12l3-4 6-3-1-12h7v-19l1-3v-1l1-3h5l-1-12 2-2q3 3 6-2l4-3 2 5v9q1 6 7 7l-1 3v16l10-4 2 2 4 1 3 1 1-1h8l-4-10h1l7-3v-17l2-3 13 1c-3 7 3 5 6 7q-1 6 5 5l7 1 1 2 3 4 2 1c0 7 10 5 9 11l2 1h10v1c0 6 0 7 8 5l4 2v5l7-1 5 4v3l3-2 2 1 18 12q0 4 5 1l11 8h2l14 9v2q5 2 7 8l3 1 9 2-1 2h1l1-2 1 4 7-1 5 7h6l5 3q1 6 7 4 5-1 6 4l4 3 13-1h1l1 1 1 1q0 5 4 5h9c0 3-3 7 3 6h5l9 1 1 1 3 1q0 7 9 3l2 2 1 6 11-1q1 8 8 7 7 1 7 7h18l1 1q0 9 12 4l1 2v5h26l-1-5 4-1q9 3 10-5h1l1-2h17l1-7h1l9 2 3-3-1-4h14v-6l3-1c3 0 7 2 8-4h1v-1l9-2q4 2 9-2l-4-2 25-10 1 1 1-2 69-35 39-22 1-1 36-22v-1l12-7v-1l33-24v-1l8-4 6 8 12 32 11-3 3-1 3-4 8-27c2-8 3-9 12-8h1l4 14 1 1 32 96 14 45v5l3 3 2 7 2 2-2 4h-1l-2-2-3-5-6 1h-8l-5-8v-6l-7 1 1-1q2-8-6-7h-7v-1q0-7-6-6l-1-6h-5q-8-1-8 6l1 8q-2 8 7 5v3c-1 10-1 10 5 11l5-1 3-1h3l3 9-2-1h-9q-6 2 0 6 2 8-6 8l-4 1-6-1h-18l-6-1h-18l-23 1h-2l-1-1-4 1h-10l-6 1-5-1-3 1h-2q-3-4-6 1l-1-1-1-1c-5 1-10-3-14 1h-2l-8-1-7 1q-6-3-7 5h-4l-1 1h-14q-13-3-25 0v1l-1 4h-10l-2 1h-2l-2 1-4-1-3-1h-22l-1 6-10 1-3 3v1l5 2 9 3v1l2 7-1 1 2-1c2 1 5 4 7-1l1 1 6 2h96l5-3h165l3 1 5 2h38l5-3 11 1 1 1 2-2 3 1 3-1 9 1q6 3 9-1l2 1 9 3q4-8-3-7v-241c0-8 0-8-7-8H848l-6-1-1-1-2 2-4-1-1-2-3 3-13-1-2-1v1l-1 1-1-1-2-1-2 2-1-1c0-6-5 0-6-3l-1 4h-94l-7-1-3 1v-1l-1-2-2 3-1-1-3 1-2-1-4-1v-1c-3-4-7-1-11-2l-1 5-1-1q-3-4-5 1l-1-1c-2-6-7-2-10-3l-4 4-8-1-2-3-3 4-2-1-8 1-9-1-3-3-2 4-1-1q-3-4-6 1l-5-1-3 1-4-1q-3-5-7 1l-7-1-2-1-2 2-1-1-2-4h-1v5l-1-1c-5-5-5-5-9 1l-12-1c-4-4-10-1-15-2l-3 3-1-1q-9-4-18-1l-2 2-10-1-5-3-4 4-4-1 1-1 2-1v-1l-4 2-3 2-21-1q-2-3-4 1l-8-1-7-4-3 5-11-1q-4-3-9 1l-11-1-11 1-2-1-1-4-2 5-3-1-6-5-2 6-1-1-4-2h-17l-5 3-1-1-3 1-17-1-6 1h-23l-19-1-5-2-15 1h-28l-4-1h-4q-5 2-8-1l-1-1 1 2-1 1-21-2-4-1q-5 0-7 2-4 3 1 5h1l-2 12h1l3 1-1 25c-5 3-2 8-2 12v34l1 5h-1l-3-3v36q0 5 6 7v114l-1 3-5 3 2 4h1l7-3 1 1 1 1 2-2 71 1 4 2h38l5-3h132l10 1 4 2h90l5-3 5 1 14 2c-4-10 5-10 9-15 2 0 4 5 7-1l2 1 7 3v-7l-6 1-1-1h-3q-1 1-3-2l-1-4h-29l-5-1h-1l-6-1-1-1-1 2-3-2q2-4-3-4l-11 1-4 2-3-1h-6l-9-2h-3l-3-1-3-5c-6 2-6 1-15-1-3 0-7-3-10 3l-3-1q-3-4-7 0l-1-1h-11l-12-1h-6l-3-1-3-6-7 2v4l-2-1-2-1v-1q-3-5-7 3l-18-1-6-4q-5-2-7 4l-2-1-5-3h-14q-4-1-7 5l-2-1q0-4-4-3l-3 5-12-1v-6q2-4-2-7l-6-5 7-2v-4h1v-4l3-5 3-1v-12l1-8v-2l-5-1-1 6h-1l-11 1-1 7-1-1q-5-2-8 6c-10-1-11-1-11 9v4h-1l-4 1-6 1h-7l-3-9 2-3zm636 109v10l7-1c1-1 0-9-3-11zh-1zm-706 0v10-1l1 1 6-1c-1-4 2-8-3-11h-3zm708 39-2 1-1 1 1 8 4-1h2l-2-8h-1zm-705 0-3 1-1 1h1v1l1 7 4-1h2l-2-8h-1zm370 1-1 2 1 6h5l-1-9zm53-1-4 1-1 2 1 6 5-1v-7zm319 1-1 2 1 6 6-1-1-7-1-1zm-612-44-1-7v-1l-6 2 1 6zm192 1 5-2-1-7-5 1h-1l1 7zm263 66 6-2v-2l-2-7h-5zm-69 26h5c4-3 1-7 2-10h-8zm481-40 4-1h1v-8h-6v1zm-906-61-6 2 1 6h6zm201 52-1 2v6h6q3-5-3-9zm431-3 5-2v-9l-6 1zm-259 36v-6l-1-1-7-1q1 6 4 9zm229-36 6-2v-9h-7zm303-22q-2 10 5 6v-7l-3-2 4-2q1-6-1-10l-3-1-2 2v9l1 3zm-395 59 1-9-7 2q-1 3 1 7zm333-38v-7q0-5-5-4c-4 1-2 5-2 7q-1 7 6 4zm81 5c0 3-2 7 2 8 4 0 2-5 3-7l-1-1-1-2zm-757-45q4-4-2-7h-4v8zm200 3-1 12 1 1 6-2v-1l-1-10zm-191 37v-8l-3-3-4 3 1 8zm367 16-1 9 3 2 4-1-2-10zm-98 0-1 9 3 2 4-2-1-9zm103 23v-8h-6c0 7 0 7 6 8m250-78 5-1-1-8-5 2zm-34-8h-4l-2 3 3 5 3-1 1-2zm-132 0q-3 3 1 8l4-2v-6zm-417-1-5 2 1 7 5-2zm465 2 1 7 5-2-1-6zm32 7q2 0 3-2v-7l-4 1q-5 3 1 8m-424-7 1 6h5l-1-8zm-382 38v8q8 3 7-4v-4l-2-3zm394-40-2 2v7l4-1q6-5-2-8m425 7-1-6-5 1 1 7zm-109 1h2l-2-7-1-1-4 2 1 6zm-422 3h-1l-2 1-1 1v9l1 1q8 3 6-5c0-2 2-6-3-7m130 35v-8q-7-3-7 3v4l2 4zm-93 40h5v-8h-7zm396-78-1-8-5 2 1 6zm-264 0q4-4-2-7h-5v7zm-232 20v6h6v-8q-3-3-6 2m108 20h6l-1-10c0-1-4-3-5 2zm225-14 1-1h4v-8q-3-4-6 2zm147 6v8h6v-10l-5-1zm-375-6v-8l-7 2v6zm117-27-1-6-5 1 1 7zm489-6h-6v8l6-1zm-637 0h-2l-3 1 1 6h5zm-14 85h5v-7l-6 1zm374-60q-5 3-2 8h2l1-2v-19l-3-1c-3 1-1 10 2 13zm92-18q3-4-2-7h-4q-4 10 6 7m264 38v-8l-7-1v13zm-672-44v4l2 2 3-2q2-4-4-6zm317 50h-3l-1 6 3 2 1-2zm-639-3h5v-9l-1-3-5 3zm322 3v6l2 3 3-3-2-7zm-59-12 1 8q7 3 6-5v-3l-2-3zm-258-13-2-1q-6-1-4 8 8 2 6-7m-31-1h-4l-1 3q-1 7 7 5zm49-25h-5c0 4-2 9 6 8q5-4-1-8m543 26q-2 11 7 7v-8zm-551 7q4-7-4-10l5-4-1-8-7-1 1 13-1 3q-2 11 7 7m551 19q-2 11 7 7v-8zm-548 0q-2 11 7 7v-8zm382-51c0 2-2 7 3 7s2-4 3-7l-1-1h-4zm16-2-4 1-2 4 3 4 3-4zm330 0-3 2v7h2l4-2q0-4-3-7m-683 1-5 1v7l6-2zm201 0-1 5 3 2 3-2-3-6zm-276 80 2 5h5v-10zm898-80h-5v6l5 2zm-232 80 2 5h2l3-2-1-6q-4-2-6 3m240-81-4 2v6h7zm-341 85v-6l-5-1-1 9zm-113-83v6q9 2 4-8zm-357 25-6-1v8l7-1zm494 21q8 2 6-5v-4l-2-3-5 2zm-151-22h-6v8h6zm127 7-1-7q-4-1-5 3-2 7 6 4m-84 2 2-1c7 1 3-4 4-8h-6zm-260-27q5-3 0-8l-3 1q-5 3 1 8zm401 56-4 1-3 3q-1-6-7-4l-1 8 2 3 6-3q0-2 2-2l3 5 4-1zm-336 36h5l-2-10q-4-1-4 3zm38-26h6q1-5-2-10-4-1-4 3zm139-40h5l-1-9 1-3v-6q0-7-7-3l1 8 4 4v1l-5 2zm-60 30-1 9 3 2 4-3v-4q0-6-6-4m499-29 2-1q7 1 3-8h-5zm98 55-2 11 8-2v-9zm-788-79h-2l-3 2v10l6-1zm73 12 6-1-1-11h-3l-2 2zm173 18v-2l-6-1-1 3v5l3 3c7 0 3-5 4-8m-179 49-4 2 1 8h6v-8q0-2-3-2m208-18v-8h-6l-1 9 3 2zm-450-34h-7l2 11s4 2 5-3zm419 13-4 3v3l2 4 4-4zm456-44h5q3-6-4-7l-1 2-1 1zm-633 44-3 1v8l6 1zm324 13h-5v10h6l1-1zm-507-58-1-4-6-2v9zm907 5h-3l-2 13 8-3-1-10zm-223 0h-5l-1 9 2 3q2 1 5-2zm-278 41-3 8h7v-8zm-117-1-2 2v8h2l4-3q2-5-4-7m180-50h-5l-1 8 7-3zm-554 52v9l6-4q3-4-4-7zm558-5h6v-10l-5-1-2 3zm-92-22-1-3 1-7q1-7-7-4l2 12-1 3-1 7h7zm13 14 1 8q9 3 7-5v-3l-3-3zm422-14 1 8h4v-8zm-422 2v3l3 4q3 0 4-4v-5q-4-3-7 2m-440 21 6-2 1-8q-4-5-7 1zm921 4v5l2 2h3q2-4-3-9zm-547-1-1 7 5 2v-9zm8 1v7h6l-2-9zm285-1-1 8 6 1v-9zm-40 1v5l2 2q2 1 4-1 2-4-4-8zm-427-2-3 1-1 8q9 2 4-9m316 8-1-6-2-2-3 1-1 8zm-266-7-5 1v7h6zm249-40v9l2 2q4 1 5-1l-2-11h-2zm-329-1h-2l-2 1v9l3 2 4-1-2-11zm87 40-2 2v5l2 2h3q2-4-3-9m174-40-1 9 2 3 5-2v-10zm-304 12q9 3 7-5c0-2 2-6-3-7q-5 0-4 4zm59 4q0 4 2 7h4v-8zm-137-4h7v-9l-3-3q-5 0-4 4zm853-22-1 7 6 1-2-9zm-315 32 2 1h4q3-10-5-7zm-303-20v8q0 5 5 2v-2l-1-9zm148 39-2 8h7l-2-9zm204-18 2-1h5v-8h-7zm-9-7v4q-2 4 3 3l3-3q0-5-5-6l1-1q4 1 4-5v-5l-3-3-3 3zm-10 0 1 7h5v-17q1-9-7-4l1 8 5 3-1 2zm-77 25q-4 3-1 7l5 2 1-1-3-9zm14-29-1-12-5 2v9c2 4 4 0 6 1m376 12 2-1h5v-8h-8zm-924-10v-11l-3-3-3 3v20h6zm562 9h6v-8l-7 1h-2l-7-1v9l8-2zm93-8h-5v8h7l-1-11v-11h-6v11l5 2zm-205-1v-11l-1-3-4 1v10zv1q-7-1-4 8h6zm124-14-3 3v9h8l-3-12zm-39 0-3 1v5q-2 9 7 6v-9q1-4-4-3m-285-11-1 1v9q5-2 6-4 1-5-5-6m312 14-3 2-1-5h-6l-1 8 2 4 6-3q1-2 3-1v4l6-1-1-11h-3zm-263 11 1-1q7 0 3-13h-6zv1l-1 8h7v-8zm-34 74v-9h-7l-1 6q0 8 8 3m252-36q-6 0-5 5v6h8zm261-63-1 2v6q10 3 6-7zm-211 60v-8q-4-3-7 2l-2-1-2-2-4 1-2 9 9-2zm107-60-4 1q-3 10 6 7v-7zm-240 74h7l-2-10h-5zm516-15v-7h-5c-4 2-1 5-2 8l6 1zm-453-8-2 1c-5 2-1 5-2 8h7c-1-3 3-7-3-9m-155-42 1-2v-6h-6q-3 8 5 8m553 25h6v-7c-7-3-6 2-7 6zm-46-23q-4-1-4 4v5l2 4 5-3zm47 41-1 7 6 2-1-10zm-625-1-2 1-1 9 6-2q3-5-3-8m80 0-3 1-1 8 6 1zm-380-50h-6v7l7-2zm346 52v7h7l-2-9zm-15-2-4 2v8l6-1zm-351-26v-14l-7 2 1 9zl-1 2-5 2 2 6h6zm622 27-3 7 2 2 6-2q3-6-3-8zm-84-1-4 1-1 7q1 2 3 1l3-1zm-14 1-3 7 2 2 6-2q3-4-2-8zm-481 1v8l6-1-2-9zm462-1c-5 2-1 5-2 8h7c-1-3 2-7-3-9zm128-1-2 2v8l5-2q3-5-3-8m-619 1q-3 12 7 7l-1-6-2-2zm248-1-3 2v5l2 2 3-1zm179-4v-9q-5-4-7 2l1 8zm-459 12-2-7-2-1-3 1q-4 12 7 7m722-8-5 2v7h7zm-722-44-1-5q-3-2-6-1l-1 5c1 5 5 2 8 1m973 45c-4 1-2 5-2 7l7 2c0-4 3-8-3-10zm-360-1-3 1q-3 5 1 8 3 1 4-1c1-3 3-6-2-8m128 0-4 2-1 5 3 2q3 1 4-1zm-209 1q-3 7 1 8 3 1 4-1 3-5-2-8zm-128 1-1 5 3 2h4l-2-9zm294-1-1 1v7h7l-1-9-4 1zm-646 0-1 9 6-1-2-9zm186-26-1 8h6v-8l-4-1 1-1 3-1v-11l-4-1-1 3zm265-15-2 2 1 10 7-1c-1-4 2-8-3-11zm-46 40-4 1q-4 12 6 8zm487-26 1-1q6-1 2-14l-4 3zv1l-1 8h6v-8zm-944 20-1-5v-2l-7 1 1 9 6-1zm330 6-4 1v8l6 1zm296-13h-7v10l7-1h1l2 1h6v-9l-5-2-3 6zm337 36h4v-11l-6 2zm-582 25v-9h-7l1 10zm617-78v-10h-7l-1 8q0 8 8 2m-321 70 1 8h6v-8zm-228-26-1-1h-5v11h6zm90 36h1l2 1 4-1v-6q-1-5-7-3l-1-1-7-1 2 11v1l3-1zm-25 1 3-2v-10c-2 0-6-2-6 2 1 3-3 8 3 10m-71-62v8h6v-10h-7zm-132-2h-5v11h6zm-273 41-5-1-2 4q-1 7 7 3zm-39 0-5-1-2 4q-1 7 8 3zm271-28-2 1q-4 3-1 7l4 1 2-2zm493-4-1-10c-2 1-5-2-6 3v8zm-333 52v-9h-7l1 10zm562-47-2 8h8l-2-9zm-365 31q-2-7-8-4v7c5 3 6-2 10-2q1 4 5 2l1-7-4-1zm-141-32-4 2q-3 10 7 7zm-63-3 7-1-1-10-6 2zm329-11-6 2 1 9 6-1zm-293 62v-9h-6v10zm224-47h-4l-2 8h8zm-670 0-1 8q8 3 7-5l-2-4zm-14 45v-7h-7v10h6zm581-44-1 5 3 2 5-1c0-3 2-7-4-8zm-78-1-1 10 7-3q3-4-3-8zm450 0-1 5q1 3 4 3l3-1c0-3 2-6-3-8zm-375 46-2-8h-5v7l1 3zm0-27-2-7h-5v7q0 3 3 4 3 2 4-4m-1-32-4-2-2 4v4l2 4q3 1 5-4zm171-28-1 2v8l3 3 4-3-1-10zm265 52-2 1c-1 11-1 11 7 9v-9zm-906-51-6-1v14l7-5zm48-201h2l4-9 3-1c-6-4-7-4-11-2l-1 2-1 8zm422 201q-7-2-6 4v4l2 3 5-3zm-371 8-1-8q-7-3-6 4v3l2 4zm173-9h-3l-1 2v8l3 3 3-3v-10zm248-8q-2-5-6-2-2 1-1 5l3 3q4 0 5-5l2 2 4 2 2-3-1-5-5 3zm208 9v7q-1 7 7 4v-2l-3-10h-2zm-823 53 1 8 6 3v-13zm28 33-2-8h-6v6l2 4zm0-27-2-7h-5v11q6 1 7-4m0-26-1-6-6-3v13l1 1zm-41 18c-7 1-7 2-5 12 3 0 6 2 7-4zm925-48v9l5-2v-10l-6 1zm-43-3-7-1v12c3 0 6 2 8-3zm-880 10-2-11-5 1v11zm481 78 5 1 3-11q-7-2-10 4l-6 3v4l4 1zm-404-88c-2-1-6-3-6 2v12l-1 9 8-2v-6h2l1 7h6v-9q-9 3-15 0l1-1q5 0 4-5l2-8 2 12h6v-12l-7 1zm552 85q0 5 4 3l2-4v-3l-2-3-4 2-3 2q0-7-7-4v10q6 3 7-4zm-668-158q-3 16 2 31c5-11 2-22 0-34zm618 74v11l7-2v-10zm372 2v4q0 5 4 5 5-1 3-5v-4l-2-4q-4-2-5 4m-684-3-1 8q0 3 4 3 5 1 3-3v-9zm-20 0v9l2 2h4v-11zm7 34v-8q-9-3-7 6l1 4zm352 51v-8l-7 1v7l3 4q4 1 4-4m352-58-6-3v12q8 3 6-5zm-261 61 7 1v-11h-7zm293-3c1 6 5 3 8 3v-10h-8zm1-33v8l3 3q4 1 4-3v-9zm-976 25c-6 3-2 8-3 12l6-2c0-3 4-8-3-10m317-17v-8h-7v7l2 4zm346-7v10h6v-12zm-624-54-3 2v10q9 3 7-5c0-2 2-6-4-7m709 11v-8l-4-3-3 3v10zm208 23q0 5 4 4l3-4v-4q-1-4-3-4c-6 0-3 5-4 8m-372 27 3 3q3-1 3-3l1-9-7 1zm-318-61-4 2v8q0 2 3 2l2-2zm129 10v-7l-3-3-3 3-1 5 2 4zm-362 1v-10q-10-3-6 12zm590 75 2 3h4v-9l-6-2zm98-82v3q-1 8 7 5v-9l-3-3q-3-1-4 4m-600 8v-6q1-9-7-5v11zm695-5v-3q1-4-3-4t-4 4v4q-1 3 3 5 5 0 4-6m-307 57q6 1 3-11h-6q-2 9 3 11m-95-52 1-9-2-3-4 1-1 10zm23-1 7 2v-8q1-7-7-4zm-127-5v3q0 3 3 4 4 0 4-4v-4q1-5-3-5-5 0-4 6m657 3q-1 4 3 3l3-3v-4q0-7-6-4zm-94-9-4 1v11l6 1zm-295 0-4 3 2 9h4c2-2 1-10-2-12m-46 7q2-11-7-6v11c4 0 8 2 7-5m-22 5c2-1 4-8 2-10q-1-3-6-2v9q0 4 4 3m-311-12h-6v9l3 3 3-3zm777 28-1 9h8v-10zm-460-19q1 5 4 3l3-3v-6l-4-3-3 3zm-441-8v12l6-1 1-11zm464 11 3-2-1-9h-5c-2 1-1 10 3 11m378-4 2 4h4v-11l-6-1zm36-2c-1-3 1-6-3-6q-4 1-3 5v3q-1 7 6 4zm-628-6h-5v12l2 1 4-3q1-4-1-10m312 12c5-2 2-7 2-10l-5-3v11zm-239-7q-1 11 7 6v-7q1-3-3-4-4 0-4 5m-290 7 3-2v-11l-6 3q-2 7 3 10m577-12c-6 1-3 6-3 9q0 6 5 2 2-2 2-8zm-623 31c1-6-3-3-7-4l1 8 3 3 3-3zm-65 5 6 3v-12h-6zm-3 23v-6h-7v11c3 0 7 2 7-5m401-29q1-4-4-4-3 0-3 4v5l4 3c6 0 2-5 3-8m0 29-1-6h-5l-1 11h7zm-34 5h4c2-12 1-12-6-11zm54-5-2-6h-4l-1 11h6zm22-5v10h7v-6q1-9-7-4m-159 9v-10q-11-3-6 11zm443-35v7q3 5 6 2l1-10zm-274 27v9h7v-7l-1-4zm-414 2q0-7-7-4-2 15 7 10zm512-20q9 4 7-7 0-4-4-4t-3 4zm-556 42-2 7 3 4q4 0 4-4v-7zm400 10h5l1-10q-7-3-7 5zm303-26h6l1-10q-9-3-7 5zm-342-26h6v-10h-6zm220 42h-6v7q1 3 4 3l3-2zm-260-45q0 4 4 4l3-2v-9q-9-3-7 7m236 30q10 1 5-11h-6v5zm-23-7q0-5-4-5-4 1-3 5v5l3 2 3-1zm156 22q-7-3-7 4l1 4q1 3 3 2l3-2zm-323 3c0-6-4-3-6-3-2 11-1 11 6 10zm369-30q-6 0-3 12h7zm-130 27-1 8 2 3 4-1v-9zm337-53h-5v7q0 7 6 4zm-253 30q0-5-4-3l-2 3v7q8 3 6-7m-82-30-3 3 1 8 2 1 4-2c-1-4 2-8-4-10m-62 28v10h7v-7q1-8-7-3m412-26v5q-1 7 6 4v-11zm19 54 1 5 2 3 4-3v-5l-2-3q-2 0-5 3m-10-19h6l2-10h-8zm-410 26q9 3 6-10h-8zm35-2v-6l-3-2-3 1-1 6 2 3zm58-34-5-1v12h5zm-5 27v10l5-2v-9zm-111-49q1-5-4-5-4 1-3 5v4l3 3q2 0 3-3zm53 7 5-3v-7l-3-2-3 2q-1 4 1 10m-249 49v-3q1-8-7-5v7l2 3zm169-33v10h6v-12zm180-28-3 3 1 8 2 1 3-2c-1-4 3-8-3-10m-203 28-6-2v12h6zm-16 2v8h7l-1-9q0-2-2-2zm-36 8q5 0 3-12l-5 2zm55-28 7 3v-12q-8-2-7 4zm-120 25v-8h-6v12zm611 3h5q3-15-5-11zm-429-38c-3 2-4 10-2 11h5l1-9zm-271 36v-9q-9-3-5 11zm131 24q1 4 4 4l3-4v-7q-9-3-7 7m-91-5-6-4v12q6 3 6-4zm330-43q4-3 2-10l-5-2-1 1c2 3-2 8 4 11m335-1 1-6q0-7-7-4v7q0 5 6 3m-666-10-5-1v11q6 3 6-4zm154-1c-5 3-1 8-3 11h7l-1-8zm41 12 2-11-2-2-5 4c1 3-3 9 5 9m456-37-1 11h7v-11zm-385 67-7-2v9h7zm-213-31 6 1v-11q-7-2-6 6zm-117-30v6l5-2v-10l-5-1zm59-5v10q8 3 6-7 1-8-6-3m133-1-6-1v12h6zm-62 11q6 0 2-12l-6 1zm395-4v-7h-6v12c2-1 6 1 6-5m-349 0q0 7 6 4v-11q-8-3-6 7m376-8q-6 0-4 10c0 4 3 2 7 2zm-112 58c-1 6 3 5 7 5v-10h-7zm20-21 6 1v-11h-6zm-323-31v6q7 2 6-4v-3q2-5-3-5-4 0-3 6m514 6 1-12q-4-1-6 3-2 10 5 9m-854 26q6-1 3-11h-6v8zm717-37q-6-2-5 4v4q1 3 3 3t3-3zm-465 10 6 2v-13l-6 1zm216 27q9 1 5-11-8-1-6 6zm-206 17v9h5l1-3v-5q0-6-6-1m244-65v7l4 1 3-1q3-9-7-7m461 22q4 2 4-3v-6l-2-3-3 3zm-719 44q-1-6-6-3v10q8 3 6-7m649-39v6h8l-1-7q-2-1-7 1m-185 15q0 8 5 5l1-6q1-4-3-5-5 0-3 6m235 1q-1 5 3 5 5-1 3-5v-5l-3-2-3 3zm-607 22v9q10 2 5-12zm-98-20c0 4 5 3 5 2l1-9-6-2zm98-1 2 4 3-1 1-10-6-1zm319 50v-2l-3-3-3 3v3q-1 4 3 5 4 0 3-6m10-25v-6h-6v11h6zm0 29v-9h-6v11zm-461-51v-10h-5v11zm739 16v11l6-1v-9zm-617 35 6 2v-11h-6zm-360 2c6-1 4-6 4-9l-5-3-2 1zm980-11c-3 1-4 9-2 10h4c3-1 1-9-2-10m-327-44c1 6 4 1 7 2v-10c-7 0-7 0-7 8m-283 54q8 5 6-10h-6zm-5-36h-5v11h6zm50 30q-1-6-5-4v9l5 2zm-49-54-6-3v11h6zm98 2v-5q-5 1-7 3l1 8h6zm-49 5v-11l-5 3v9zm441-41q2-8-7-5v8zm-179 3c6-1 2-5 2-9l-6 3q-3 3 4 6m-486-3-2-5h-5v7zm36 3c5-1 2-5 2-8q-4-1-6 2-3 5 4 6m22-4v-5l-7 3 2 5q3 3 5-3m685-4h-6q-3 9 4 8c5-1 2-5 2-8m-102-196q-5 3 2 12l4-13zm115 197v2q-1 5 4 5 5-1 3-5c0-6-4-4-7-2m27 4v-6l-7 2v6zm-490-5h-7l1 6q1 2 4 1c4 0 2-4 2-7m-78 83q2-9-7-6l1 8zm16 17c6-3 1-8 3-11h-6v8zm13-22-6-2v9h6zm-442-71q3-5 0-8l-4 1-1 6zm57-8q-6 1-3 6l4 2q2 1 2-2zm610 7v-4l-3-3-3 3q-1 9 6 4m-411 23q0-6-5-4l-2 5 3 3q4 1 4-4m390 40v-4l-3-3-2 3v5l2 4zm-260 11c1 2-1 6 4 6 6-1 2-6 3-9l-1-1zm209 6q6-1 4-7l-5-2q-5 2 1 9m-19 0c5-1 2-5 3-8l-5-1-2 3c1 2-1 5 4 6m-425-82q1 5 5 4 4-2 2-5l-3-4q-4 0-4 5m378 3 1-7h-5q-3 3-2 7zm-126 78v-9l-6 2v6zm-56-4 1 5 6-1v-8c-3 0-7-2-7 4m-48 3 5 1v-7l-5-2zm336 2c5-1 3-5 2-7l-4-3-1 1c0 3-3 7 3 9m331-1 4-1v-6l-4-1-1 2zm39-11h2l1-11h-3l-2 2zm-687 7v4h4q3-2 2-5l-2-3q-4-2-4 4m-291 4q6 2 3-9l-5 2q-1 4 2 7m-16-20-6-4v13q7 1 6-9m992 29v3l3 3 2-3v-6l-2-3-3 3zm-816-94h-6v6l4 1zm-55 7 7-1-1-6-6-1zm-121 10q1-10-6-6v11c2-2 6 1 6-5m284 78v-6h-6v10c3 0 6 2 6-4m333-94-6-1-2 7h8zm-333 66q0-7-6-4v11h6zm-36 14q-1 5 4 5 3-1 2-5 1-3-2-4-5-1-4 4m202 3v-4l-3-3-2 3v6zm255 8c0-6-4-3-6-3v10h6zm27-67c-7 0-3 5-4 8h8zm-10 0c-7 0-3 5-4 8h7c-1-3 2-7-3-8m-696-17q6-2 4-6l-6-3-1 1c1 2-2 6 3 8m-3 23 7 3v-9h-7zm324-6-1 8h6v-8zm235 8h2l4-2-1-5-4-1zm149-25c7 0 3-5 3-8h-7zm-669 18v7h7q3-10-7-7m333 0v7h6q3-10-6-7m30-1-1 8h7c0-8 0-8-6-8m279-14h-5v7l3 4 3-4zm-175 18q0-4-4-4-4 1-3 5 0 3 3 3 5 1 4-4m-147-1c0-5-4-2-6-3v8q7 3 6-5m376-2v7h6v-8zm185 3c0 6 4 4 7 4v-7q-7-2-7 3m-267 54v-6q-10-3-6 9zm33-57v7h6v-8zm-202-1c-7 1-3 5-4 9l6-2c1-2 3-6-2-7m6 8h6v-8h-7zm-498-8-2 8h7c-1-3 3-8-5-8m497 13v7q0 3 4 3l3-2v-9zm286-31h5v-7h-7zm-210-2-2-6-4 2v6zm-608 28 1-8c-7 0-8 0-6 8zm328-8-1 8h6c1-8 1-8-5-8m378 7v-6q-10-3-6 7zm-232-25 6 1v-7l-3-2-3 2zm-419 1q7-1 4-6l-4-3-2 2zm357 24v-6q-10-3-6 7zm225 15v-8l-2-3-4 1-1 9zm370-48-5 1v7h8zm-739 29 1 5h6l-2-8zm61-28-2 7 1 1c2-1 5 1 6-3q1-5-5-5m243 33c6 0 6 0 6-8h-7zm287-33q-6 1-3 5 1 2 5 3l1-1c-1-3 2-6-3-7m-72 5 5 2 2-7h-7zm-378-5q-6 1-3 6l5 2 1-1c-1-3 2-6-3-7m-46 5v-5h-7l1 7zm-249-6c-4 1-2 4-2 7l4 1 2-3q2-4-4-5m373 0q-6 1-3 6 1 2 5 3l1-1c-1-3 2-6-3-8m-486 5q1-4-3-5l-4 2q0 4 2 6 2 3 5-3m514-5-3 8h7c1-7 1-7-4-8m8 6 4 2q2 1 3-2 2-4-3-6-5 1-4 6m19-1q1 5 4 3 3-1 3-4l-3-4q-4 0-4 5m43 4c5-1 3-5 3-7l-4-2-3 4q-1 4 4 5m199-1v-7q-8-2-7 4t7 3m-104-7v5l2 2 4-2q2-6-6-5m-510 3q0 5 4 4l3-3-3-5q-3-1-4 4m172 91c-1-2 2-5-2-5-5-1-3 3-3 5v1l2 5zm633-87 4-1v-6l-3-1q-4 3-1 8m-633 36v-4l-3-3-2 3v5l2 4zm0 26c-1-2 2-6-3-6-4 0-1 4-2 7l2 4zm-74-27v5h6v-10h-6zm264 37 3 6 4-1-1-7zm113-80q-7-1-4 8 9 2 4-8m76 74h4v-11l-6 3zm160-73-5 1v6h4q3-2 1-7m117-1-5 2v6h4q4-2 1-8m-529 1-4 1v6h4q4-2 0-7m-43 85h5v-8q-8-3-5 8m-210-84-5-1-1 6 4 1zm20 3q0-7-8-4l4 7q3 3 4-3m38 0q1-7-7-4l4 7q3 2 3-3m660 2 5 1 2-7h-7zm-415 27q4-11-6-7v7zm-334-34q-5-1-5 5c0 5 3 3 6 3zm465 48q4 3 5-2l-1-6-2-3-2 3zm-548-40q8 4 6-7h-6zm188 78q6 0 4-6c0-4-3-2-6-2zm304-60c-6 1-2 5-3 8h6l1-8zm40 8c7 0 2-5 3-8h-8c3 3-2 7 5 8m-179 56-1 8 2 1 5-7zm104-10-6-2-2 8c8 1 8 1 8-6m404 3q2 6 5 3 3-2 2-5 0-3-4-3t-3 5m20-2v5h7v-8zm-675-55-1 8c4 0 6 2 7-3q1-6-6-5m70 8h4v-8h-6q0 5 2 8m379-6q-1 10 5 6v-9zm223 4q2-8-6-5v8zm-50-6h-6v8c7 1 7 1 6-8m-339-23q-1 8 6 5v-8zm-302 31q8 1 4-8h-5zm-34-1v-7h-6v8zm762 45q-6-1-5 6l3 2 2-2zm-1003-71 5 1 1-6-6-2zm142-6-5 1v5l6 2zm416 0v7l5 1 2-8zm-111 27-6-3v9h6zm3 30 6 4v-10q-7-1-6 6m42-49c5 0 3-4 3-7l-4-1q-5 1 1 8m506 20v2l3 3 2-2-1-6zm5 12q1-4-5-3l1 11h2zm-651 40q-1 10 6 4v-8zm641-55h-4v8h7zm-463 61c6-1 4-5 4-9h-7zm-546-1 3-7h-7c1 3-3 7 4 7m1015-85v5l3 2 1-6zm-288 80q-1-5-4-3l-3 8h7zm274 1q1-4-3-4-4 1-3 4 1 4 3 4 4 1 3-4m-783-53q-1-5-4-3-2 2-2 6l3 2q5 0 3-5m493 53v4h6v-8c-3 0-6-2-6 4m-23-3-6-1v7q1 2 4 1c4-1 1-4 2-7m37-53h-4v8h7zm47 8c7 0 3-5 4-8h-7zm-378-2q2-8-6-5v8zm307 53 5 1 1-7q-7-1-6 6m-396-51 1-8h-6v8zm137 52 1-8h-6v8zm-50-8-4 1v7h4zm-12 0-2 7 6 2 1-2c-2-2 3-7-5-7m51-52q-6 1-3 6l4 3 2-2zm-131 58 6 3v-9h-6zm-20-53q1 5 4 3l2-5-3-3zm-141-29-6-1v5l3 3 3-3zm229 1 2 6 3-1 1-8zm-29 29 5 3v-7l-2-2-3 2zm489-29q-1 10 6 4v-6q-3-1-6 2m-176 2 2 3 2-4-2-4zm4 94v-2c0-2 3-7-2-7-4 0-2 5-2 8q1 4 4 1m355-17c0-5-3-3-6-3v7c3 0 7 2 6-4m-994-3-1 7q9 2 5-7zm515 1-6-2-1 2 4 3zm-56 4h4l2-5-4-1c-4 0-2 3-2 6m-496 10 2 6 1-6v-1l-1-3zm519-11-5 2v1l6 1 3-2zm-518-40 1 5h1v-10h-1zm675 43v-6l-1-2h-2q-3 5 3 8m-698-161q1-5-2-8l-1 8zm25 76-1-1-2 6 2 2 1-4zm355 83 1 2h1v-7h-2zm685-140-1 8h2zm-473 146-5-1v2zm-43-6q0 6 5 1zm-214-364-3 1 1 2zm312 3 2-1-1-1zm-58 377-1-1v2zm66-378-1-1-1 1zm-269-3 3 2v-1zm-6 4v-1h-1zm-363 178q1 0 0 0m0-6q1 0 0 0m1-27q0 1 0 0m-1-11q1 0 0 0m1046 74q0-1 0 0m-839 6q1 0 0 0m840 4q0-1 0 0m-1047 20q1 0 0 0m1 5q0 1 0 0m236-245q0-1 0 0m51 1q0 1 0 0m-5 0q-1 0 0 0m30-1q-1 0 0 0m-210 0q-1 0 0 0m-3-1q0 1 0 0m947 250q-1 0 0 0M192 1075q-1 0 0 0m178 48q-1 0 0 0m215 163q0-1 0 0m610 6q-1 0 0 0"/><path fill="#030301" d="m389 61 11 20 26 43 33 56 20 35 25 42 28 49 47 80 16 29q3 6 11 8 19 5 25 25l1 15c-2 12-13 19-24 15q-21-7-25-30l1-14-3-9-18-26-29-42-50-73-37-55-60-88-48-72-32-50-7-7-18-11h95a1339 1339 0 0 1 104 58l52 30 69 40 70 41 92 53 6 4h5c18-8 41 4 47 23 3 11-5 22-17 23q-23 3-35-16l-5-9q-1-5-4-7l-59-28-67-33-48-23-63-31-50-24-48-24z"/><path fill="#010101" d="M462 1418H278q12-27 35-41 25-15 52-17h10l10 1q51 8 76 54zm691 0H969q11-24 31-37 49-34 105-10 22 10 37 29z"/><path fill="#050404" d="M488 1418h-21a108 108 0 0 0-91-61h-13l-5 1q-33 2-59 25-16 15-27 35h-16l-1-3 3-6 1-1v-1l5-8v-1l2-2 3-5 21-22 15-11 34-15 27-4h13l32 6 7 2 26 14 13 11h1l8 9 6 6 13 21zm690 0h-20q-10-19-25-32-40-36-93-26-52 10-76 58h-17q17-41 54-61 16-8 33-14 30-6 58 0a127 127 0 0 1 86 71z"/><path fill="#bcae6c" d="M964 1418q24-48 76-58 53-10 93 26 15 13 25 32h-5l-11-18a98 98 0 0 0-37-29q-55-24-105 10-20 13-31 37z"/><path fill="#e3d48d" d="m164 1387-1 20 1 2-1 9h-1l-1-109 2-288 1 1-1 44 1 3-1 21 1 2-1 4v100l1 2-1 15 1 3-1 39v8l1 16-1 14 1 2-1 3 1 3-1 28 1 2-1 18 1 4-1 32z"/><path fill="#c2b25d" d="M1178 1418v-4q-11-26-33-44-23-19-52-27l5 1 3-2h2q2 7 6 3l3 2 2-8 2 7 6 4q7-3 7 4l3 1v-3q2-5 6-2c2 4-2 11 5 14h3l3 3 2 4 8 8 2 2 2 6 4-5v-6l1 9 1 8 8-4c0 5 3 8-2 10l6 13v-10h6q6 11-7 11l4 3 5 2z"/><path fill="#bdae60" d="M1034 1343q-17 6-33 14-37 20-54 61h-10l2-2q9-1 7-10l1-3 4-5 2-2 1-1 5-7-2-3 6-2 2-2 1-1v-4l6-2 2-2 3-8h2c3 0 6 1 7-5h5l1 1-1-1 1-2h1l2-4q1-5 4-4c5 3 8-1 12-2h1q3-1 3-4l2-4v7l2 1 2-4 4-1q5 4 6-2h3z"/><path fill="#060503" d="M1266 1418v-54l1-31-1-30v-44l1-186v-37l-1-18 1 8v250l1 142z"/><path fill="#bcae6c" d="M376 1357q32 2 58 21 22 15 33 40h-5l-1-3q-25-46-76-54l-10-1zm-104 61q11-20 27-35 26-23 59-25l5-1 2 3q-27 3-52 17a92 92 0 0 0-35 41z"/><path fill="#cebb52" d="m488 1418-3-10 2-6h5l1 16z"/><path fill="#bcae6c" d="m258 1409-3 6 1 3h-3v-5z"/><path fill="#060503" d="m716 1418-3-5h4l1 5z"/><path fill="#dac440" d="M689 1418h-6v-2h6z"/><path fill="#060503" d="M745 1418q2-4 6 0zm19 0c1-1 2-5 4 0zm-569 0q2-4 5 0zm482 0 1-2 2 2zm547 0h4zm-578 0h4zm245 0h4zm-318 0h4zm157 0 1-2 2 2zm-24 0 1-4v-1l1 4z"/><path fill="#594f18" d="M689 1418v-2l3 2z"/><path fill="#060503" d="M931 1418h3zm-333 0h3zm240 0h3zm20 0h3zm12 0h3zm27 0h3zm-294 0h3zm-372 0h3zm294 0h3zm14 0h4zm-313 0h3zm15 0h3zm520 0v-2zm430 0h3zm-265 0h3zm-10 0h3zm-29 0h3zm-235 0h3zm-20 0h3zm-14 0h3zm-64 0h3zm-34 0h3zm-5 0h3zm-10 0h3zm-284 0h3zm-10 0h3z"/><path fill="#594f18" d="M683 1416v2h-1z"/><path fill="#060503" d="M206 1418"/><path fill="#020200" d="M1110 956h-37q9-14 8-30l-3-91c-3-11-16-11-23-5q-9 8-9 19l-1 35v34c0 13-1 26 8 38h-6l-127 1q-14 2-16-15v-15q-9 3-12 10-10 15-27 21-23 9-44-4-14-13-16-31l-1-28-1-88-6-20h79c-9 11-8 24-8 37l2 80q1 10 9 12 11 1 17-6 9-11 8-25v-73q0-14-9-26h7l123-1c17 0 18 6 20 19v11q8-1 10-7 8-12 20-20c15-8 39-11 53 1q13 12 15 29l2 29 1 89 6 20zm-130-47v-96l-2-12-3-11h-3l-3 16 1 131q0 8 4 16h1l3-8zm-692 31 24-86 18-83 6-36-4-19h105c-8 13-3 26-1 39a1314 1314 0 0 0 37 155l14 39 3 4h2l3-16-1-127q-1-11-5-22h3l50-1q17-1 18 18v9l2 3q2 1 3-1l14-17c15-16 36-19 55-12q16 6 7 19l-17 37-3 4c-5 9-10 6-15-1q-4-8-11-12c-13-5-32-3-34 19l-1 14 3 81q1 6 5 11H395q10-17 7-35l-5-36-2-12-3-3h-33l7 18q9 21 10 45c-1 10-2 18-12 23l-4 1h-83zm51-154v19c0 19 7 36 13 53q2 4 6 4h33v-6l-13-51q-4-18-14-35-11-13-20 1zm904 167q-18 11-38 5c-30-7-44-28-51-56q-5-18-4-37 2-32 20-60 19-24 49-24 20-1 34 13 4 4 9 5l2-9v-33q0-12-10-16l-4-4 4-4 33-15 30-11q11-3 12 9l1 205q-2 18 7 33l-4 1h-55q-9 0-11-8l-2-10-2-5-4 4zm20-125-1-5q-4-17-19-17-12 3-18 12-9 17-10 35l1 34q0 16 7 30 6 12 20 11 13 0 16-10 5-11 5-21v-62z"/><path fill="#010100" d="M941 656q-1 2-3 2l-5 2h-64q-10 0-15-7c-12-13-14-30-19-45l-2-5v-2l-8-32-13-41c-5-16-8-32-17-47l-1-4h81l3 34 5 17 9 36 14 48q5 15 14 29c4 8 12 7 16 0q13-23 13-50 1-14-1-28-3-15-12-29-12-14-29-21c-9-5-7-12-3-16q6-8 15-13 18-10 40-12 19 0 25 16 7 18 1 35l-13 42-22 66z"/><path fill="#030200" d="M696 785q39-7 70 17 32 26 32 66 1 37-24 63a86 86 0 0 1-65 31q-29 0-53-17a89 89 0 0 1-21-118q17-25 44-37zm-18 64q1 31 11 60 5 18 16 32c9 11 23 14 29-3q6-15 7-31a176 176 0 0 0-26-101l-10-8q-13-4-20 11-7 18-7 40"/><path fill="#9d8d28" d="M354 638q-1 12 6 23 3 3-2 5l-5 1h-75l-6-2 2-5q4-11 5-20V505q0-12-7-23-3-7 4-7h58q19 0 19 19v9l2 4 3-2 10-14q22-25 54-19l16 5q12 3 7 18l-7 13-1 6q39-51 102-42 63 14 77 78l5-13q12-33 43-52 29-19 64-15 53 8 76 57l1 2 5 11 2 29q0 26-14 48-14 25-40 40-16 9-35 11l-9 2q-40 0-69-28a93 93 0 0 1-28-51l-2-3-2 5q-8 28-29 49-24 22-57 27-22 3-42-4-23-7-39-25a98 98 0 0 1-24-92l1-5-1-1-5 5q-5 6-10 0l-8-11c-7-12-28-11-37-5l-5 9q-3 10-4 22v69zm289-131a96 96 0 0 0-23 47l-4 8-4-8q-3-23-15-41a93 93 0 0 0-123-28q-24 13-38 37a96 96 0 0 0-12 71q6 30 30 51 46 38 100 14 49-22 58-76l1-4 3-2 1 2 2 10q8 40 39 61 28 20 64 16 18-2 34-10 27-15 40-40 18-31 12-66-4-32-30-53a88 88 0 0 0-52-23q-50-5-83 34m-362-9v6l1 115-1 31-4 13 7 1h65l9-1q-8-14-7-28l1-92q4-14 19-19 19-3 31 12l6 8q3 5 8 0l3-5 9-17 14-30q5-8-4-12l-17-6c-16-4-39 4-49 18l-13 16-6 2-3-5v-10q0-17-17-17h-57z"/><path fill="#a3922a" d="M76 503q5-35 22-66 20-35 59-45 24-3 46 4c13 3 26 7 39 4l15-6 5-2q12-4 14 8l-4 21q-6 22-23 39-13 13-33 8l-24-7-30-15q-16-9-34-9-9 0-13 7-5 9-6 18-2 55 29 102 15 24 40 35 12 6 27 5 12 2 23-3 20-10 25-33 4-15 0-30-2-6-5-7-5 0-8 4l-13 16q-16 20-42 16t-35-29q-4-12-1-26c3-8 12-12 19-7q19 11 37 0 15-7 32-7c19 0 36 12 37 34v66q-2 11-7 20a96 96 0 0 1-55 50l-18 3q-19 1-39-3-37-13-58-46-19-30-21-65l-1-47zm146 157h2l17-12 1-1q13-10 20-26l1-1 2-1c10-19 7-38 6-58v-34c-2-19-21-28-36-27q-17 1-32 8-16 9-32 1l-6-3q-5-3-9 1t-5 7q-1 11 1 20 1 14 14 22l1 1 3 2q7 6 16 5h1q6 4 12 0h4l4-1q15-6 24-19l8-11q4-4 9-4 6 1 7 8 5 17 0 33-4 16-15 26c-17 14-36 14-55 8q-27-8-43-32l-11-14v-1l-16-38-4-11v-2l-2-7v-4l-3-29q1-9 4-17 8-19 31-13 20 6 39 17 24 14 51 13 6 0 11-4h1l3-3 2-1 4-5 2-1 6-10 1-1 1-3 1-1q9-16 11-34 0-6-4-9-4-1-10 1-12 9-26 8-15 0-30-5-20-6-42-4-35 6-56 35-13 17-19 38-8 22-10 46l1 43q2 31 17 59l13 18v1l16 15a78 78 0 0 0 42 18l7 1 13 1q18 2 36-9"/><path fill="#8a7b22" d="m1257 493 3 11 1 7 1 6v42l1 5v40l1 6v27l1 9 1 2 5 12-6 1-19 1h-45l-17-1-1-3 4-8 1-2 1-5 1-7v-2l1-53-1-2v-34q0-10-4-19c-4-8-15-10-23-3q-11 11-10 26l1 89q1 9 5 18 4 5-2 6l-12 1h-69l-6-2 3-5 5-10 1-16-1-129q1-13-6-26v-3h67q8 0 10 8l3 19 1 4 4-2 12-14q15-18 39-19 10-1 20 1 18 4 27 22zm-92 25q21-7 26 13l2 14v74c0 13 1 26-7 40q42 1 80-1l-4-18-2-83-1-34q0-13-5-27-5-15-19-22c-19-9-50-3-63 15l-14 16q-2 2-6 1l-2-5-1-14q-1-11-9-12l-10-1h-56q8 14 7 28l1 128-3 22-4 8h73l8-2-1-3q-6-12-5-24v-51l1-40q2-15 14-22"/><path fill="#090907" d="M1039 564h-1l-5 3q-4 4-3 10v9l-3 11-1 1-1 11-2 1-1 5-1 8-4 4 1 3 1 2q5 3 6-2l2-2c2-8 7-15 4-23l1-1c5-3 2-7 2-10l3-2 3-5 8-13q2-2 4-1l17 16-12 7q-11 11-14 26l-9 23c-4 10-15 13-25 9q-11-6-6-22l1-1 6-17 15-48 2-6c2-9 8-18 6-28l1-2 3-7q0-11 7-18l1-3 1-8q3-7-4-8l-9-1q9-6 18 0 3 3 1 8l-5 16q-1 12-4 23-4 10-3 21l-3 2q-4 2 0 4z"/><path fill="#4e460f" d="m941 656 9-25 22-66 13-42q6-17-1-35-6-16-25-16-22 1-40 12-9 5-15 13c-4 4-6 11 3 16q17 7 29 21 9 14 12 29a126 126 0 0 1-12 78c-4 7-12 8-16 0q-8-14-14-29l-14-48-9-36-5-17-3-34h-81l1 4c9 15 12 31 17 47l13 41 7 32-2-3-1-2-1-6v-2l-1-2-1-5-1-2-1-3-1-4v-2l-7-19v-3l-3-9v-2l-4-12-1-4q-5-22-16-42v-5h87v31l1 2 3 14 14 50 14 48 10 21q7 9 13 0l5-10q12-30 7-63-2-24-20-40l-20-13q-11-6-5-16l3-4q23-23 57-24 14 0 23 12l4 9 1 2v19l-4 16-3 16-2 4-1 4 1 1-2 2v3l-2 3v3l-2 4-6 17v2l-13 37-1 2-1 3-1 3-1 3-1 3-3 9-2 6-2 2z"/><path fill="#594f18" d="M1044 505q-7 7-7 18l-3 7-1 2c2 10-4 19-6 28l-2 6-15 48-6 17-1 1q-5 16 6 22c10 4 21 1 25-9l9-23q3-15 14-26l12-7-17-16q-2-1-4 1l-8 13h-2l9-15 4-4 3 3c6 7 15 12 18 22q-16 0-21 15l-6 15-10 25c-7 12-28 14-34 0q-3-7-1-13l12-37 13-39q6-15 7-30 3-18 11-34l1-6-7-2-5 2-15 1q-5-8-13-1l11 2q-11 3-14-4l4-4 7 1h3l8 3 12-7h2l6-1 3 1h3q12 7 4 16l-1 6-1 1v3l-1 4-1 7-1 2v7l-1 4-1 4-1 1-1 9-1 1-1 3-2 5q-1-11 3-21 4-12 4-23l5-16q2-5-1-8-9-6-18 0l9 1q7 1 4 8l-2 8z"/><path fill="#625716" d="M1270 403c13-19 36-23 53-9q14 13 13 31 3 25-14 45-12 17-34 14l-5-3 4-3c8-3 10-14 8-19q-2-3-5-3c-23-6-31-35-20-53m9-6q-15 13-9 34 4 18 22 22 6 1 7 7 1 10-5 18l-2 2 1 1h3q15 0 23-12 19-24 13-54c-6-24-32-34-53-18m11 83"/><path fill="#8a7b22" d="m1072 405-1 23c-5 21-26 30-46 27q-32-5-34-39 1-29 25-39c21-8 47 1 54 24zm-62-21-6 5q-14 18-8 39 1 6 6 11 15 18 38 13c18-3 28-17 29-33q3-21-14-34-21-15-45-1"/><path fill="#a3922a" d="m988 491-4-9q-8-12-23-12-34 1-57 24l-3 4q-7 10 5 16l20 13q18 16 20 40 5 33-7 63l-5 10q-6 9-13 0-6-10-10-21l-14-48-14-50-1-4 3 4 25 90 12 27q7 9 12-1a123 123 0 0 0 8-81q-7-24-29-36l-8-4c-9-5-11-15-4-22q26-28 65-26 18 3 22 23"/><path fill="#aa982d" d="m1005 483-4 4q3 7 14 4h2l15-2 5-2 7 2-1 6q-8 16-11 34-1 15-7 30l-13 39-12 37q-2 7 1 13c6 14 27 12 34 0l10-25 6-15q4-15 21-15c-3-10-12-15-17-22l3 1 12 12 4 8q0 4-4 4-10-2-14 7l-8 18-10 26c-4 10-18 16-30 11q-14-7-10-23l8-27 14-43 8-24 1-3c-1-15 7-28 11-43l1-5h-6q-13 6-27 4-7 0-14-8z"/><path fill="#4e460f" d="m833 603 2 5c5 15 7 32 19 45q5 6 15 7l62 2h-68q-14-8-20-22l-4-10-1-5-1-2-1-3-2-4v-5l-2-6v-2z"/><path fill="#a3922a" d="m865 663 4 1zm14-190-64 1v-2h58zm-88 1 1 5q11 19 16 42l-3-3c-5-14-8-28-17-40q-3-3 3-5z"/><path fill="#c0ad3b" d="m1190 579 1 2-2 1z"/><path fill="#a3922a" d="m838 630 5 10q6 14 20 22-5 2-9-3-13-11-16-29"/><path fill="#060503" d="m164 1022 1-1v-3l1-1v-1q4-8 13-10l-1 7q-7-1-6 4z"/><path fill="#594f18" d="m1037 592-3 2c-6-1-3-5-3-8l-1-9q-1-6 4-10v2l-1 3 1 5q0 2 2 3l-1 2-3 9 5-2z"/><path fill="#c0ad3b" d="m1264 610-1-6z"/><path fill="#aa982d" d="m1037 588-5 3 3-9c7 0 7-5 9-9q1-6 7-5l-4 4z"/><path fill="#c0ad3b" d="m1263 564-1-5z"/><path fill="#d3bd3a" d="m792 474-1-1 2-2 22 1v1z"/><path fill="#060503" d="M1266 1016q-2-4-9-4l-5-6q11 0 14 10"/><path fill="#a3922a" d="m982 544 7-32 1 5zm-166 7 7 19-6-11z"/><path fill="#d3bd3a" d="M813 537v2l-1 2-2-1-4-11h1z"/><path fill="#c0ad3b" d="m1246 662 19-1-4 2z"/><path fill="#aa982d" d="m1035 480-12 7q4-6 12-7"/><path fill="#a3922a" d="m813 537-5-8v-4z"/><path fill="#aa982d" d="m1040 553 2-5v-3q3 7-2 13h-2l-1-3z"/><path fill="#a3922a" d="m948 647 2-9zM812 541l1-2 3 9z"/><path fill="#aa982d" d="m1044 544 1-9z"/><path fill="#594f18" d="M1038 558h1l1 2-1 3-2-4z"/><path fill="#c0ad3b" d="m1190 636-1 7z"/><path fill="#c7b33c" d="m354 638-1-7z"/><path fill="#4e460f" d="m933 660 5-2-3 3z"/><path fill="#aa982d" d="m1043 479-6 1zm-8 90-1-2 4-2z"/><path fill="#c0ad3b" d="m1262 517-1-6z"/><path fill="#aa982d" d="M1048 526v-7zm1-9 1-6z"/><path fill="#a3922a" d="m832 605 2 6-2-2-1-2zm1-2h-1l-3-5 3 3zm-5-13 1 6zm105 70 2 1-4 1v-1z"/><path fill="#d3bd3a" d="M824 576v3l-2-4zm12 44 1 3h-1l-2-4z"/><path fill="#aa982d" d="m1052 502 1-5z"/><path fill="#c0ad3b" d="m1183 658 1 3h-2z"/><path fill="#a3922a" d="m957 620 1-4z"/><path fill="#aa982d" d="m1046 534 1-4z"/><path fill="#a3922a" d="M989 497v-4z"/><path fill="#aa982d" d="m1039 563 1-3z"/><path fill="#a3922a" d="m824 576-2-2 1-2z"/><path fill="#d3bd3a" d="M980 553v-1l1-1z"/><path fill="#a3922a" d="m836 620-2-2v-2z"/><path fill="#aa982d" d="m1034 576-1-3z"/><path fill="#a3922a" d="M879 483v-3z"/><path fill="#aa982d" d="M1072 472v3zm-36 108q-2-1-2-3z"/><path fill="#c0ad3b" d="M1271 660v-2l1 1z"/><path fill="#e3d48d" d="M164 1017v2z"/><path fill="#c0ad3b" d="m1266 648-1-2zm-78 0-1 2z"/><path fill="#a3922a" d="M944 655v-2zm8-20v-2zm3-11 1-2zm-119-1v2zm118 6v-2z"/><path fill="#c0ad3b" d="m1257 493-2-2zm3 11-1-2z"/><path fill="#aa982d" d="M1051 506v-2z"/><path fill="#a3922a" d="m881 507-2-2z"/><path fill="#aa982d" d="M1015 484h-2zm34-4h-2z"/><path fill="#a3922a" d="M976 564v-2zm-152 15 2 2zm2 7 2 2z"/><path fill="#d3bd3a" d="m831 607 1 2z"/><path fill="#a3922a" d="M978 558v-2zm3-7h-1v-2z"/><path fill="#060503" d="M1244 1005h-2z"/><path fill="#050404" d="M165 1015"/><path fill="#060503" d="M745 1005"/><path fill="#e7d041" d="M275 1289h-76q-4 0-4-4l1-3v-185l-1-20 1-26v-9q-2-6 5-6l28 1h130l25-1 2 1h842c7 0 7 0 7 8v242l-6 2H864l-9-6v-2l-3-4h-11v-2l3-1 47-8 10-1 58-7 25-2h2l16-1 6-1h16l24-1h18l23 2h10q8-1 6-10l10-4 1-1 17-4 9-1 8 5 2 1h2v-6l-3-8-3-8-14-44-33-96v-1l-5-14c-9-1-10 0-12 8l-8 27-4 4-2 1-11 3-12-32-6-8-2 1-6 3v1l-33 24v1l-12 8-37 23-39 22-69 35-2 1-25 11-5 2-9 4h-1l-12 5-13 6-12 5-16 7-2 1-2 1-10 4-5 2q-11 6-20 0l-4-1-2-1-11-5-1-1-21-8-1-1-11-4-1-1-11-5-3-1-8-3v-1l-3-1-1-1-17-6v-1l-13-5-1-1h-2l-35-16-39-20-15-9-1-1-34-20h-1l-2-1-2-1-5-4-4-2-1-1-2-1-4-2v-1l-8-5-45-33-4-3q-7-4-10 3l-2 4-6 19-1 1-3 9h-5l-4-2-3-1q-6-1-6-7l-2-6v-3l-5-20-5-4c-6-2-6-2-9 5l-1 4-1 3-4 11v1l-1 2-1 2-1 2-6 19h-1l-5 15-2 5-4 14-1 1-6 17-1 2-15 44-1 3-2 4v2l-1 1-1 4-4 11v3h4l9-6h2l33 9q5 1 3 6-2 8 6 9h13l6-1h3l28-1 12 1h19l20 1h9l25 2 6 1h4l27 4h6l19 3 17 2h5l6 1 6 2 30 4 4 1 3 1c4 3-1 2-1 3l-3-1h-11l-4 3q-4 10-14 10z"/><path fill="#dac440" d="M332 1228q-1 2-3 1l-22-6q-1-2-3-2l9-7h1l7-5h1l12-8h1l6-3 1 2v2l-2 5-4 12-2 6zm775 5h-5l-5-10v-3l-4-10v-2c1-5 3-2 5-1l11 7h1l11 8h1l5 4-14 5-4 1z"/><path fill="#060503" d="m312 1214-9 7q2 0 3 2l22 6h4v3l-7 2 6 5q4 3 2 7v6q-8 0-6-8 2-5-3-6l-33-9 5-1 5-1v-4c0-10 1-10 11-9m-117-137 1 20v70q-6-1-6-6v-36l3 3h1l-1-5v-34c0-4-3-9 2-12m329 74 39 20 35 16-13 1-4-3q-1-5-6-4-6 2-7-4l-6-3h-5l-5-7-7 1-2-4-9-2-3-1q-2-6-7-8zm-235-115-60 1-28-1q-7 0-5 6v9h-4l2-12h-1q-5-3-1-5 2-2 7-2l4 1 21 2 1-2q3 3 8 1h4l4 1h28l15-1z"/><path fill="#c3b354" d="m411 1345-32-6q-7-4-13 0l-27 4-9 2 1-7h1c7 2 13-1 20-1h4l3-1h27l2 1h6l12 3 8-1v6z"/><path fill="#060503" d="M866 1290a1122 1122 0 0 1 106-1l-4 3h-96zm-402 0 98-1-4 3h-90z"/><path fill="#bdae60" d="m331 1338-1 7 9-2-34 15-15 10h-4l1-3 6-3-2-3h6l4-8v-2l8 2 11-6 5 1v-8l3 4z"/><path fill="#c3b354" d="m1034 1343 1-4 15-1 4-1h19l5 1c6-1 12 2 18 0l5 4-3 2-6-1q-28-6-58 0"/><path fill="#060503" d="m285 1207 15-44 2 9-1 9c-6 1-6 1-6 8l-2 10v1c-4 0-5 5-8 7m14-29q0 1 0 0"/><path fill="#d4be42" d="m287 1365-1 3 4 1-21 22-7-1 7-3v-1l3-10q4 1 7-2 2-3 2-9l4-1z"/><path fill="#060503" d="m1113 1232 14-6-5-4 6-1v6l5 8-17 5zm-4-19-11-6c-2-1-4-4-5 1v2l3 9q-7 5-6-4l-1-8q0-8 8-6h5l1 6q6-1 6 6m-775-144 1-4c3-7 3-7 9-5l5 4 5 20q-7 0-7-6v-9l-2-5-4 3q-3 5-7 2"/><path fill="#bcae6c" d="m443 1360-25-13h1c6-1 4-5 4-9l2 4q0 7 5 7l5 2q4-2 7-1l2 4 2 4z"/><path fill="#060503" d="m984 1256-25 2-13 2q-1-8 6-5l7-1 8 1h2c4-4 9 0 14-1zm-13-1q1 0 0 0m-21 1q1 0 0 0m-2 1q1 0 0 0"/><path fill="#090907" d="M173 1249c2 11 5 22 0 33q-5-15-2-32z"/><path fill="#060503" d="m658 1213 12 5 20 9h-17q0-6-7-7-7 1-8-7m18 11q1 0 0 0m-2-1q1 0 0 0m467 67 47-1-4 3h-38z"/><path fill="#c7b33c" d="m287 1346-7 1 1-9h1q6 2 15-1v9h-6l-1-7h-2l-1 5z"/><path fill="#060503" d="m275 1290 46-1-4 3h-38zm293 0q10-1 14-11l4-3h11c-2 6-4 1-6 1-4 5-13 5-9 15zm-149-204 25 17h-9l-2-1c1-6-9-4-9-11l-2-1z"/><path fill="#bcae6c" d="m487 1402-2 6-12-21q2 0 3 2 9-1 8 8-1 3 3 5"/><path fill="#060503" d="m594 1272-21-5h20z"/><path fill="#d4be42" d="M838 1408h-2q-1 7-7 4v-10q7-2 8 4z"/><path fill="#060503" d="m705 1233 4 1q9 6 20 0l2 5h-26zm-200 26-27-3c2-6 6-3 9-3 9 2 9 3 15 1zm-125-8-25 1q1-5 6-5h14q3 1 5 4"/><path fill="#cab643" d="m288 1324-1 7q1 5-5 5h-1v-10c0-5 4-3 7-2"/><path fill="#c3b354" d="m789 1325 7-1v10l-7 2z"/><path fill="#060503" d="m880 1268-25 4v-6h22z"/><path fill="#cab643" d="M1161 1326q1-4 5-3l2 4v4q2 4-3 5-4 0-4-5z"/><path fill="#c9b95f" d="m477 1324 6-1v9q1 4-3 3-4 0-4-3z"/><path fill="#cab643" d="M458 1324h5v11h-4l-2-2z"/><path fill="#060503" d="m289 1229-9 6h-4v-3l4-11 3 8zm637 33-25 3v-4q12-3 25 1"/><path fill="#c3b354" d="m464 1358-6 2-1-4q-3-9 7-6zm352 51q0 5-4 4l-3-4v-7l7-1zm352-57v3q2 8-6 5v-12z"/><path fill="#c7b33c" d="M288 1323h2l7-1v12h-6z"/><path fill="#cab643" d="M907 1411v-9h7v11zm293-2v-7h8v10c-3 0-7 3-8-3"/><path fill="#d4be42" d="m1201 1376 7-1v9q0 4-4 3l-3-3z"/><path fill="#c7b33c" d="M225 1401c7 2 3 7 3 10l-6 2c1-4-3-9 3-12"/><path fill="#c2b25d" d="M476 1384v-3q-2-8 7-5 4 12-6 11v-1z"/><path fill="#c9b64b" d="m542 1385-5 2-2-4v-7h7zm148 21q2-6 9-4l-3 11-6-1zm148 2v-2l1-2 4-2 2 3v3l-2 4q-4 2-5-4"/><path fill="#d7c34a" d="m888 1377 6-2v12h-6z"/><path fill="#cab643" d="M264 1323c6 1 4 5 4 7q2 8-7 5v-10z"/><path fill="#c7b33c" d="m973 1334-7 2v-10l3-3 4 3z"/><path fill="#bcae6c" d="M1181 1357c1-3-2-8 4-8l3 4v4l-3 4q-3 1-4-4"/><path fill="#c7b33c" d="m248 1333-5 3h-1l-1-13 7 1z"/><path fill="#cebb52" d="M809 1384v-8l7-1-1 9q0 2-3 3z"/><path fill="#c7b33c" d="m1010 1336-5-1v-11q8-3 7 4z"/><path fill="#cab643" d="M448 1336v-10l1-3 4 1v11l-4 1z"/><path fill="#c7b33c" d="m491 1323 1 10-2 2q-3 0-3-2v-8zm129 10-5 2-2-4 1-5 3-3 3 3z"/><path fill="#c3b354" d="m258 1334-6 2q-4-15 6-12z"/><path fill="#c7b33c" d="m575 1336-1-13h6q4 13-4 13z"/><path fill="#cab643" d="M271 1335v-9l3-3 3 3v9z"/><path fill="#d4be42" d="m932 1336-5-1v-11h6z"/><path fill="#c9b95f" d="M848 1409v-8l6 2v9h-4z"/><path fill="#c7b33c" d="M946 1326q1-4 4-3l3 3v9q-8 3-7-5z"/><path fill="#cab643" d="M345 1335h-6v-11q8-3 7 5z"/><path fill="#c7b33c" d="M1041 1331q1 5-4 5-4-2-3-5v-4q0-4 4-4t3 4z"/><path fill="#c9b95f" d="M733 1387q-4-2-2-11h6q3 12-4 11"/><path fill="#c7b33c" d="m639 1335-6-1 1-10 4-1 2 3zm23-2v-9q8-3 7 4v8z"/><path fill="#cab643" d="M535 1328q-1-5 4-5 4 0 3 5v4q0 4-4 4-3-1-3-4z"/><path fill="#c9b64b" d="M1192 1332v-8q6-3 6 4v4l-3 3q-4 1-3-3"/><path fill="#cab643" d="m1099 1323 1 13-6-1v-11z"/><path fill="#bfae4e" d="M803 1323c3 2 4 10 2 12h-4l-2-9z"/><path fill="#cab643" d="M209 1335h-6v-11h5zm881-2c-1 4-4 2-7 2v-12l7 1z"/><path fill="#c9b95f" d="M757 1331c1 6-3 4-7 4v-11q9-5 7 7"/><path fill="#cebb52" d="M735 1335q-4 2-4-3v-9q5-1 6 2c2 2 0 9-2 10"/><path fill="#d7c34a" d="M424 1324v8l-3 3-3-3v-9zm777 26h7v10h-8z"/><path fill="#d4be42" d="m227 1336-5-3v-9l6-1z"/><path fill="#bfae4e" d="M741 1332v-6l3-3 4 3v6l-3 3q-4 2-4-3"/><path fill="#c9b64b" d="M301 1324h6l-1 11-6 1zm597 12v-10l3-3 3 3v5q1 6-5 4z"/><path fill="#c1af45" d="M763 1335c-3-1-4-10-2-11h5l1 9z"/><path fill="#cebb52" d="M1142 1331v-8l6 1v11h-4z"/><path fill="#d4be42" d="M1025 1335v-13l6 4q2 10-5 9z"/><path fill="#cab643" d="M1178 1329v6q-7 3-6-4v-3q-1-4 3-5c4 0 2 3 3 6"/><path fill="#bfae4e" d="M550 1323q2 6 1 10l-4 3-2-1v-12z"/><path fill="#c9b64b" d="m862 1335-3-2v-11l5 3c0 3 3 8-2 10"/><path fill="#d4be42" d="m1108 1336-4-1q-5-14 6-11z"/><path fill="#bfae4e" d="M623 1327q0-4 4-4 4 1 3 4v7q-8 6-7-7"/><path fill="#060503" d="m400 1071 17 13-6-1q-6 1-5-5c-3-2-9 0-6-7"/><path fill="#c9b64b" d="M333 1335q-5-3-3-10l6-3v11z"/><path fill="#060503" d="m320 1109 6-19 1 19z"/><path fill="#dac440" d="m910 1323 4 3q1 6-2 8-5 4-5-2c0-3-3-8 3-9"/><path fill="#cebb52" d="m1075 1336-2-12q8-3 7 4l-2 7z"/><path fill="#c7b33c" d="M1153 1336v-11l4-3q5 13-3 14z"/><path fill="#c9b64b" d="M287 1354v4l-3 3-3-3-1-8c4 1 8-2 7 4"/><path fill="#c7b33c" d="M1133 1324h5v10l-5 2z"/><path fill="#c9b64b" d="M222 1358v-8h6v12z"/><path fill="#cebb52" d="M708 1413h-5l-2-11h8z"/><path fill="#c7b33c" d="M1054 1335v-7q-1-6 6-4v11z"/><path fill="#c3b354" d="M219 1383c0 6-4 4-7 4v-11h7z"/><path fill="#060503" d="m378 1093 6-19 1 4v12z"/><path fill="#c9b64b" d="M269 1386h-8v-11h6z"/><path fill="#c9b95f" d="m838 1355 2-6 5 2v9l-6-1z"/><path fill="#b8a849" d="M620 1353c-1 3 3 8-3 8l-4-3v-5q0-4 3-4 5 0 4 4"/><path fill="#c1af45" d="M620 1382v5h-7l1-11h5zm-35 5-1-11c7-1 8-1 6 11zm55-5-1 5h-6l1-11h4z"/><path fill="#c9b64b" d="M209 1384c0 5-3 3-6 3-2-10-2-11 5-11z"/><path fill="#c1af45" d="M662 1377q8-5 7 4v6h-7z"/><path fill="#c2b25d" d="m502 1386-5 1q-5-14 6-11z"/><path fill="#b8a849" d="m946 1351 7-1-1 10q-3 3-6-2z"/><path fill="#c2b25d" d="m672 1378 6-2 1 4v7h-7z"/><path fill="#c3b354" d="M258 1380v6q-9 5-7-10 7-3 7 4"/><path fill="#c9b95f" d="M770 1359v-6q-1-3 3-4 4 0 4 4 2 11-7 6"/><path fill="#d4be42" d="m693 1336-2-12q8-3 7 4l-1 7z"/><path fill="#c3b354" d="M214 1402h5v7q0 4-4 4l-3-4z"/><path fill="#c0ad3b" d="M613 1411v-4q0-8 7-5l-1 10z"/><path fill="#c2b25d" d="M917 1386v-5q-2-8 7-5l-1 10z"/><path fill="#b8a849" d="M575 1360v-10h6v10z"/><path fill="#bfae4e" d="m248 1358-5 4-1-1v-13l6 4z"/><path fill="#cab643" d="m795 1402 1 8-3 2q-3 0-4-3v-7z"/><path fill="#c3b354" d="M535 1357q-2-10 7-7v9l-3 2q-4 0-4-4"/><path fill="#c9b95f" d="M770 1386v-10h6q5 13-6 10"/><path fill="#c0ad3b" d="m1159 1379-8-7 2-8h4q5 7-3 9z"/><path fill="#bfae4e" d="m748 1380-1 6-3 1-3-2v-5q-1-4 3-5 4 0 4 5"/><path fill="#c1af45" d="m350 1335-1-9 4-3 2 3v8zm-102 49q0 4-6 3v-11h6z"/><path fill="#b8a849" d="M904 1403v7l-3 2q-2 0-3-2l-1-4q0-7 7-3"/><path fill="#c7b33c" d="M581 1405v7c-7 1-8 1-6-10 2 0 6-3 6 3"/><path fill="#cab643" d="M389 1335v-9l2-3 3 3v9z"/><path fill="#c0ad3b" d="m248 1411-5 1-2-4v-6h7z"/><path fill="#c1af45" d="m951 1375 3 12h-7q-3-12 4-12"/><path fill="#bfae4e" d="m820 1402 5 1v9l-4 1-2-3zm337-52 1 10q-6 3-6-4v-7z"/><path fill="#c3b354" d="M904 1379q2 10-6 7v-7l2-3q4-1 4 3"/><path fill="#bdae60" d="M823 1349c5 2 2 6 3 10l-4 2-2-1-1-8z"/><path fill="#bfae4e" d="M761 1377q7-5 6 3v7h-7z"/><path fill="#d7c34a" d="m222 1376 6-1v13l-6-4z"/><path fill="#c3b354" d="m1172 1351 6-2v11q-7 3-6-4z"/><path fill="#b8a849" d="M1191 1405q3-3 5-3l2 3v5l-4 3-2-3z"/><path fill="#c9b95f" d="M1181 1385v-9h8l-2 10zm-410 27-2-10h8q3 13-6 10"/><path fill="#bfae4e" d="m806 1410-5 2-2-3 1-6 3-1 3 2z"/><path fill="#cebb52" d="M864 1376v11h-5v-12z"/><path fill="#c1af45" d="m859 1403 5-1v9l-5 2z"/><path fill="#bdae60" d="m748 1354-1 4q-1 3-3 3l-3-3v-4q-1-4 3-5 5 0 4 5m53 7q-2-6-1-10l3-2 3 2v7z"/><path fill="#b8a849" d="m552 1410-5 2-2-3v-7q8-3 7 5z"/><path fill="#c3b354" d="m721 1377 6-2v12h-6z"/><path fill="#c2b25d" d="M901 1349c6 2 2 6 3 10l-3 2-2-1-1-8z"/><path fill="#d4be42" d="M698 1378v9h-6v-12z"/><path fill="#c1af45" d="m683 1379 3-3q2 0 2 2l1 9h-7zm-38 8-1-10 5-2q2 12-4 12"/><path fill="#bdae60" d="M701 1358v-4q-1-6 7-4v12z"/><path fill="#d7c34a" d="m581 1385-6 3v-12h6z"/><path fill="#cebb52" d="M1192 1386v-10q8-4 5 11z"/><path fill="#bfae4e" d="m763 1349 4 2-1 9h-5c-2-1-1-9 2-11"/><path fill="#c1af45" d="m492 1385-5 2q-4-14 5-11z"/><path fill="#b8a849" d="M623 1409q-2-10 7-7v7l-3 4q-3 0-4-4"/><path fill="#dfc94b" d="M1046 1323h3l2 1v10l-1 1q-7 3-6-4l1-7z"/><path fill="#c1af45" d="M532 1404v4q0 7-6 4v-12z"/><path fill="#dac440" d="m838 1329-3 4q-6 2-5-4v-6h2l3 1 2 4z"/><path fill="#c2b25d" d="M861 1361c-5-3-1-8-3-11l1-1 5 2q2 7-3 10m336 0q-6 0-6-4v-7q7-3 7 4zm-666-11 1 6q0 7-6 4v-11z"/><path fill="#cebb52" d="m685 1349 3 3 1 8h-7c2-3-2-8 3-11"/><path fill="#c2b25d" d="M726 1361c-8 0-4-6-5-9l5-4 2 2z"/><path fill="#c9b95f" d="M1182 1324h6v11h-7z"/><path fill="#bfae4e" d="m836 1316 3-1 5-3 1 5-2 3-4-2z"/><path fill="#c3b354" d="M797 1392v6h-7v-9z"/><path fill="#bcae6c" d="m457 1372-13-12 9-1-2 3c2 1 3 6 8 2h4v1c-6-1-5 4-6 7"/><path fill="#dfc94b" d="M590 1324v9l-3 3-3-3 1-8 1-2h3z"/><path fill="#cab643" d="M584 1359v-3q-1-7 6-6v11z"/><path fill="#c7b33c" d="M467 1330v-7l5 1v10l-5 2z"/><path fill="#c9b64b" d="M526 1324q7-3 6 4 2 10-6 7z"/><path fill="#cebb52" d="m731 1402 7 1c-1 3 2 7-3 10h-4z"/><path fill="#d4be42" d="M659 1325v10h-6v-12zm-63 10-3-11 6-1q5 12-3 12m396-3c0 5-4 3-6 4v-12h6z"/><path fill="#c9b64b" d="M643 1331q-1-10 6-7v11q-6 3-6-4"/><path fill="#cebb52" d="m1020 1323 2 12c-4 0-7 2-7-2q-2-10 5-10"/><path fill="#dac440" d="m837 1381-2 3q-6 2-5-3v-5q5-2 6 4z"/><path fill="#d4be42" d="M907 1381v-5h7v10c-4 0-8 1-7-5"/><path fill="#d7c34a" d="M927 1359v-9h6v11z"/><path fill="#cebb52" d="M604 1328q-1-5 3-5t3 5v3q1 6-6 4z"/><path fill="#c9b64b" d="m415 1333-5 2-2-4v-3q-1-7 6-4z"/><path fill="#cebb52" d="m786 1333-4 2-2-3v-4q-1-6 6-4z"/><path fill="#c9b64b" d="M1118 1335q-7 1-5-9 1-5 6-3z"/><path fill="#c2b25d" d="m369 1114-3 9h-2l-3-11 2-1z"/><path fill="#cebb52" d="m726 1336-4-2v-10l4-1 1 3z"/><path fill="#c9b64b" d="m264 1361-3-3v-8h6q3 10-3 11"/><path fill="#d4be42" d="M887 1324q8-3 7 5l-1 6v1l-5-3z"/><path fill="#cebb52" d="m981 1324 1 8q-1 3-3 3t-3-3v-4q-1-6 5-4m-664 9-7 4v-14l6 2z"/><path fill="#d4be42" d="M516 1333v-9l6-1v13z"/><path fill="#c9b95f" d="M731 1360v-4q-1-8 6-6 4 13-6 10"/><path fill="#d4be42" d="M682 1324q7-3 7 4l-1 6-1 2-4-3z"/><path fill="#e4cd3f" d="M717 1413h-5l-1-11 1-1 5 1 1 1z"/><path fill="#e3ce52" d="m1223 1375 4 1v9c-8 2-8 2-6-9z"/><path fill="#c3b354" d="m258 1409-5 3-3-11 8 2 1 5z"/><path fill="#cebb52" d="M526 1377q6-4 6 2v5l-1 3h-5z"/><path fill="#b8a849" d="M871 1336c-3-2-5-11-2-12l3 1z"/><path fill="#dfc94b" d="m962 1324 1 9-4 3-3-3 1-8 1-2h3z"/><path fill="#bcae6c" d="M771 1313q9-2 6 7l-3 1-4-1z"/><path fill="#b8a849" d="m1231 1335-1-9 3-3 2 3v6q0 5-4 3"/><path fill="#c9b95f" d="M786 1358q0 4-4 3l-2-4v-4l2-4 4 3z"/><path fill="#cebb52" d="M786 1384q0 5-3 3-3-1-3-4v-7h6z"/><path fill="#c9b64b" d="M512 1379q1 10-6 7v-10q5-3 6 3"/><path fill="#c7b33c" d="M1161 1340q5-2 7-1l1 7h-8z"/><path fill="#c9b95f" d="M976 1354q-1-5 3-5 4 1 3 5l-1 6q-5 4-5-6"/><path fill="#060503" d="m354 1087 2 6q0 6 6 7-3 3-9 4z"/><path fill="#c9b95f" d="M1211 1356v-4l3-3 3 2v5q2 4-3 5-4 0-3-5"/><path fill="#d7c34a" d="M1064 1335v-12l6 1v10z"/><path fill="#cebb52" d="m604 1377 5-2q5 13-5 12z"/><path fill="#c3b354" d="M506 1358v-9l6 2-1 9c0 1-5 2-5-2"/><path fill="#c9b95f" d="M604 1357v-8l6 1-1 10-3 1z"/><path fill="#d4be42" d="M923 1408q1 5-3 5-5-1-3-5v-3l3-3 3 3z"/><path fill="#d7c34a" d="M933 1382v5h-6v-11h6z"/><path fill="#d4be42" d="m933 1411-6 2v-11h6z"/><path fill="#c3b354" d="m472 1360-5 1v-11h5z"/><path fill="#c9b64b" d="m786 1411-5 1-1-3v-7h6z"/><path fill="#cebb52" d="m1212 1376 5 1v9l-6 1z"/><path fill="#d4be42" d="M594 1411v-9h6v11z"/><path fill="#d7c34a" d="m234 1413-3-11 2-1 5 3c0 3 2 8-4 9"/><path fill="#c9b64b" d="M1214 1402c3 1 5 9 2 10h-4c-2-1-1-9 2-10"/><path fill="#dfc94b" d="M887 1358c0-8 0-8 7-8v10c-3-1-6 4-7-2"/><path fill="#c1af45" d="M1166 1364c4 1 2 4 2 7l-3 1q-3 0-4-3l1-5z"/><path fill="#cebb52" d="M604 1411v-9h6q2 15-6 9"/><path fill="#060503" d="m748 1226 16-7-1 7z"/><path fill="#d7c34a" d="M600 1376v11h-6v-11z"/><path fill="#c3b354" d="M716 1364q5 3 2 7l-7 3 1-10zm78 0c5 0 3 4 3 7l-5 1-3-2 1-6z"/><path fill="#c1af45" d="M649 1406v7l-5-2v-9q4-2 5 4"/><path fill="#d7c34a" d="M600 1352v8h-6v-11z"/><path fill="#dac440" d="M208 1412h-6v-10h7z"/><path fill="#d7c34a" d="M698 1355v5h-6l-1-8q2-2 7-3z"/><path fill="#c3b354" d="m649 1359-5 1v-9l5-3z"/><path fill="#e3ce52" d="m379 1323 5 1 1 8-3 3-3-3z"/><path fill="#c0ad3b" d="m228 1364 1 3q1 8-7 5l1-8z"/><path fill="#cab643" d="m894 1364 1 8h-8l2-8z"/><path fill="#c1af45" d="m1090 1318-7 3v-8q9-3 7 5"/><path fill="#c9b64b" d="M910 1321q-6-3-3-6l6-3c0 4 4 8-3 9"/><path fill="#e4cd3f" d="M663 1412v-10h6l-1 9z"/><path fill="#e3ce52" d="m956 1360 1-9 5-1v9z"/><path fill="#bdae60" d="m425 1319-7 1v-7h5z"/><path fill="#e3ce52" d="M639 1350v9l-6 1 1-9z"/><path fill="#c1af45" d="M460 1321q-6-1-3-6 2-2 6-2c0 3 3 7-3 8"/><path fill="#bdae60" d="M483 1318q-2 5-5 2l-2-5 7-3z"/><path fill="#b8a849" d="M1168 1313c0 3 3 7-2 8q-6 1-4-8z"/><path fill="#c0ad3b" d="m697 1364 2 8c-8 1-8 1-7-8z"/><path fill="#dac440" d="M838 1395c-3 1-4 6-9 3v-7q6-2 8 3z"/><path fill="#bdae60" d="M1066 1116h6l-4 13q-7-9-2-13"/><path fill="#b8a849" d="M836 1315v1q0 5-4 5l-3-3q-1-4 1-5 4-3 6 2"/><path fill="#bdae60" d="M1181 1314c3-2 7-4 7 2q2 4-3 5-5 0-4-5z"/><path fill="#cab643" d="m1208 1319-7 1v-6l7-2z"/><path fill="#d4be42" d="m1207 1364 1 8h-8l3-8z"/><path fill="#b8a849" d="M718 1314c0 2 2 6-2 6q-3 1-4-1l-1-6z"/><path fill="#c0ad3b" d="m640 1396-6 2-1-8q9-3 7 6"/><path fill="#e4cd3f" d="M633 1412v-10h7l-1 9z"/><path fill="#e3ce52" d="M972 1350v9l-6 1v-9z"/><path fill="#d4be42" d="m656 1413-3-3v-8h6c-2 3 3 8-3 11"/><path fill="#c7b33c" d="M669 1392v6h-6v-9z"/><path fill="#b8a849" d="m227 1321-5-2 1-6 4-1q3 2 0 9m58-9 2 6q0 2-2 2l-4-2q-3-5 4-6"/><path fill="#c1af45" d="M894 1319q-7 5-6-4l3-3 3 3z"/><path fill="#c9b64b" d="M483 1342q0 5-4 4l-3-3 2-5q5-2 5 4"/><path fill="#060503" d="m614 1194 16 6h-13c-6 1-3-3-3-6"/><path fill="#b8a849" d="m873 1383-3 4-2-4v-5l2-3 3 3z"/><path fill="#c1af45" d="m453 1359-9 1 2-1 2-9 5 1z"/><path fill="#c0ad3b" d="m613 1392 6-3 1 1c-1 3 3 8-3 9-5 0-3-4-4-7"/><path fill="#bfae4e" d="M821 1398q-5-6 0-8l5 2c0 3 1 7-5 6"/><path fill="#6c6958" d="M379 1323v9l3 3 3-3v-8l1 12-27-2q6 3 6-3v-8l1 9 3 2h1l4 1h1q3 1 3-3z"/><path fill="#e3ce52" d="m364 1323 1 8q0 6-6 3v-9l1-2z"/><path fill="#bfae4e" d="M802 1399c-4-1-2-4-3-6l2-3 5 1c-1 3 2 7-4 8"/><path fill="#cebb52" d="m480 1364 3 6-2 2-4-1q-3-4 2-7z"/><path fill="#bdae60" d="M378 1317q0-5 4-5l3 4q2 3-2 5-4 1-5-4"/><path fill="#c1af45" d="M209 1398q-8 3-7-4l2-4 5 2z"/><path fill="#c0ad3b" d="M248 1398q-8 3-7-4l2-4 5 2z"/><path fill="#bdae60" d="M755 1320h-5q-1-4 2-7h5z"/><path fill="#b8a849" d="m629 1398-5-1v-6l6-2z"/><path fill="#cab643" d="M574 1393c0-5 4-3 7-3v8l-6 1z"/><path fill="#c1af45" d="M526 1396v-7l5 2v7zm335 3c-5-2-2-6-2-9l1-1 4 3c1 2 3 6-3 7"/><path fill="#b8a849" d="m1193 1398-1-6 1-2 4 1v6z"/><path fill="#c9b64b" d="M749 1404q6-1 7 3 1 2-1 6h-3l-2-1z"/><path fill="#b8a849" d="m1231 1387-1-9 2-2h3l-1 11z"/><path fill="#060503" d="m301 1161 5-14 1 9-1 6z"/><path fill="#bfae4e" d="M545 1393q0-4 4-3l2 3q1 3-2 5h-4z"/><path fill="#c3b354" d="M253 1398q-2-3-1-7l5-2q3 11-4 9"/><path fill="#e3ce52" d="M238 1378q1 10-6 9v-13z"/><path fill="#b8a849" d="M1230 1407v-3l3-3 2 3v6l-2 3-3-3z"/><path fill="#bfae4e" d="m414 1314-2 6-4-1v-6z"/><path fill="#c9b95f" d="M359 1320v-8l6 1 1 6z"/><path fill="#dfc94b" d="M238 1331c0 5-4 2-6 4v-11q8-4 6 7"/><path fill="#d7c34a" d="M522 1351v10h-6v-11z"/><path fill="#d4be42" d="M522 1409c0 5-3 3-6 3v-10h6z"/><path fill="#c9b95f" d="M855 1315v5h-8l2-7z"/><path fill="#d7c34a" d="M653 1350h6v10h-6z"/><path fill="#cebb52" d="m728 1402-1 10-3 1c-6-1-2-6-3-9 0-4 4-2 6-2z"/><path fill="#e6ce3f" d="M743 1413v-10l6 2v9h-5"/><path fill="#d7c34a" d="M659 1377v10h-6v-11zm-137 3v7h-6v-11q6-3 6 4"/><path fill="#c0ad3b" d="M486 1394q-1-5 4-4 3 1 2 4 1 4-2 5-5 0-4-5"/><path fill="#d4be42" d="m888 1402 6 1v8h-6z"/><path fill="#c7b33c" d="m688 1397-5 2v-6l2-3 3 3z"/><path fill="#d4be42" d="M1202 1323h6l-1 11q-6 1-5-5zm-366 48-8 2 3-9h4l1 2z"/><path fill="#e4cd3f" d="M584 1412v-10h7l-1 9z"/><path fill="#d3bd3a" d="m1172 1376 5-1v11h-4z"/><path fill="#d7c34a" d="M943 1405v7h-6v-10c2 0 6-3 6 3"/><path fill="#c1af45" d="m473 1387-6-6 1-5q6-3 6 4v7"/><path fill="#c7b33c" d="m970 1338 4 8h-8c1-3-3-8 4-8m-10 0c5 1 2 5 3 8h-7c1-3-3-8 4-8"/><path fill="#b8a849" d="M264 1321c-5-2-2-6-3-8l1-1 6 3q2 4-4 6"/><path fill="#c7b33c" d="M261 1344v-6h7v9z"/><path fill="#d7c34a" d="M837 1355q2 0 0 0l-1 3-1 2q-6 1-5-5t6-4z"/><path fill="#cab643" d="m541 1364 1 9-6-1q-1-4 1-8z"/><path fill="#e3ce52" d="M209 1351v8l-7 1 1-9z"/><path fill="#c7b33c" d="M585 1338h5v8h-6zm569 0h4v8h-6zm-143 9-7-1c1-3-3-8 5-8h1zm-343 17 1 8q-10 4-6-8z"/><path fill="#dac440" d="m711 1334 1-10 1-1 3 1 1 5q2 6-6 5"/><path fill="#c7b33c" d="M449 1338h4v8h-6z"/><path fill="#c1af45" d="m266 1364 1 8-6 1 1-9zm553-19 2-7 4 1 1 5-4 2z"/><path fill="#d4be42" d="m913 1364 1 8h-7v-8z"/><path fill="#c0ad3b" d="m968 1321-3-8h7c0 3 4 8-4 8"/><path fill="#cab643" d="M301 1339q9-3 6 7h-7z"/><path fill="#c0ad3b" d="m619 1364 1 8h-4l-3-2 1-6z"/><path fill="#bfae4e" d="M745 1364q5 2 2 7-1 2-4 1-4-1 0-8z"/><path fill="#c7b33c" d="M634 1339q8-3 5 7h-6zm29-1c6 0 6 0 6 8h-7z"/><path fill="#c0ad3b" d="m952 1364 1 7q-1 2-4 1l-3-2 1-6z"/><path fill="#bfae4e" d="M823 1364c5 1 3 4 2 7q-1 2-4 1-5-3 0-8z"/><path fill="#e4cd3f" d="M943 1324v7l-3 4-3-4v-7z"/><path fill="#c9b95f" d="M1185 1364c6 1 3 5 3 9l-7-2c0-2-2-6 3-7z"/><path fill="#c1af45" d="M767 1342q1 5-4 4-3 0-3-3-1-4 3-5 4 0 4 4"/><path fill="#b8a849" d="M209 1320c-2 0-6 3-7-2l1-5q3-1 6 1z"/><path fill="#cab643" d="m933 1364 1 8h-7v-7z"/><path fill="#c7b33c" d="M620 1341q1 8-6 5v-8c2 1 6-2 6 3"/><path fill="#cab643" d="m207 1364 2 1v7q-10 4-6-8z"/><path fill="#060503" d="m689 1036-15 1v-5c4 1 8-2 11 3z"/><path fill="#c1af45" d="m996 1339 6-1v8h-6z"/><path fill="#c9b95f" d="M1181 1342q0-5 7-3v7c-3 0-7 2-7-4"/><path fill="#cebb52" d="m914 1396-6 3q-4-12 6-9z"/><path fill="#c7b33c" d="m947 1339 6-1v8h-6z"/><path fill="#c1af45" d="M745 1338c5 1 3 5 2 7l-6 2c1-4-3-8 4-9"/><path fill="#d4be42" d="m836 1345-7 2v-9l7 2z"/><path fill="#e7d041" d="m662 1360 1-8 6-1-1 8z"/><path fill="#c9b95f" d="m751 1346-1-8h7v8z"/><path fill="#bfae4e" d="M253 1338c8 0 4 5 5 8h-7z"/><path fill="#c7b33c" d="m491 1364 1 7-3 1-2-2v-6z"/><path fill="#c0ad3b" d="m247 1364 1 1v7q-9 4-6-8z"/><path fill="#c9b64b" d="M862 1364q5 2 2 7l-5 2v-9z"/><path fill="#060503" d="m547 1264-17-1 3-2 11-1q5 0 3 4"/><path fill="#cebb52" d="M735 1364c5 1 2 5 3 8h-7c1-3-3-6 3-8z"/><path fill="#a09b80" d="m750 1351 7-1v9l-3 2q-4 0-4-3zm2 6 3 2 1-4-2-4-2 4z"/><path fill="#cab643" d="m276 1364 1 8-6 1v-9z"/><path fill="#c9b95f" d="M755 1364q5 3 2 7l-6 2-2-2 4-7z"/><path fill="#c1af45" d="m766 1364 1 7-3 1q-2 1-3-1l2-7z"/><path fill="#c9b95f" d="M852 1364q6 1 3 7l-6 2-2-2 4-7z"/><path fill="#c0ad3b" d="m1036 1320-2-7h7v7z"/><path fill="#b8a849" d="m826 1319-6 1v-6l4-2z"/><path fill="#c7b33c" d="m222 1339 5-1h1l1 8h-7z"/><path fill="#c3b354" d="M217 1346h-4c-2-8-1-8 6-8z"/><path fill="#d4be42" d="m580 1364 1 8-6 1v-9z"/><path fill="#cab643" d="m600 1364 1 8h-7v-7z"/><path fill="#b8a849" d="m248 1319-6 1v-7l6 1z"/><path fill="#c1af45" d="M546 1338c6 0 6 0 5 8h-6z"/><path fill="#c3b354" d="m924 1345-6 1q-4-10 6-7z"/><path fill="#c1af45" d="M692 1319v-5l3-2 3 2v7zm-63 45 1 9-6-1 2-8zm-356-43-2-7 2-2 4 3q3 5-4 6m357 24-6 1q-4-10 6-7z"/><path fill="#b2ab8b" d="m854 1361-6-2 1-9 4-1 2 3zm-4-8v4l3 2 1-6z"/><path fill="#cebb52" d="m1226 1312 2 8h-8v-7z"/><path fill="#c7b33c" d="m486 1341 5-3 2 8h-6z"/><path fill="#bfae4e" d="M549 1364q5 2 2 7l-6 2 1-9z"/><path fill="#cab643" d="m1177 1364 1 9-6-2 2-7z"/><path fill="#b8a849" d="M547 1313q6-1 5 5c-1 4-4 2-6 3l-1-1z"/><path fill="#d3bd3a" d="m790 1346-1-8h7c0 8 0 8-6 8"/><path fill="#c9b64b" d="M1077 1313c5 1 2 4 3 7l-1 1q-4-1-5-3-3-4 3-5"/><path fill="#e7d041" d="m1127 1323 2 10-6 1c1-4-2-9 4-11"/><path fill="#c7b33c" d="M1171 1344c1-3 0-8 7-5v7h-6z"/><path fill="#c0ad3b" d="M1005 1318v-5h7l-2 7z"/><path fill="#b8a849" d="M627 1313c5 1 2 4 3 7l-1 1-5-2q-3-5 3-6"/><path fill="#c7b33c" d="M620 1313v7l-1 1q-8 0-5-8z"/><path fill="#c0ad3b" d="m581 1319-6 1-1-7h7z"/><path fill="#b8a849" d="M332 1312q6 1 4 5l-2 3-4-1c0-3-2-6 2-7"/><path fill="#bfae4e" d="M705 1312c5 2 2 5 3 8l-1 1q-4-1-5-3-3-4 3-6"/><path fill="#c3b354" d="M219 1318q-3 5-5 2-3-2-2-6l4-2q5 1 3 6"/><path fill="#c9b95f" d="M774 1364c6 1 2 5 3 8h-7c1-3-3-6 3-8z"/><path fill="#cebb52" d="M1227 1364v8l-1 1-6-1c1-3-2-6 3-8z"/><path fill="#c3b354" d="M733 1312c5 1 5 1 4 8h-7z"/><path fill="#b8a849" d="M741 1318q-1-5 4-6 4 2 3 6-1 3-3 2zm19-1q0-5 4-5l3 4q0 3-3 4t-4-3"/><path fill="#cebb52" d="m838 1395 3-4 4 1-1 7q-4 2-6-3"/><path fill="#b8a849" d="M803 1321q-5-1-4-5l3-4 4 2c0 2 2 6-3 7m198-1q-5 3-6-3t7-4z"/><path fill="#c3b354" d="M899 1313q7 0 5 5l-4 2-2-2q-1-3 1-5"/><path fill="#d9c33b" d="M711 1385v-9h6c0 9 0 9-6 9"/><path fill="#c0ad3b" d="M953 1313v7q-9 3-6-7z"/><path fill="#b8a849" d="M388 1316q0-5 4-4l3 5-3 3q-4 1-4-4"/><path fill="#847c51" d="M836 1371v-5h2q4-5 7-2 1 4-1 8v-3l-1-4-3 1 1 6h2z"/><path fill="#c0ad3b" d="m560 1408-3 5-2-5v-1c0-2-2-6 3-5 4 0 1 3 2 6m496-96 4 1q4 10-6 7v-7z"/><path fill="#b8a849" d="M1193 1320q-3-5 1-8l3 1v6z"/><path fill="#bfae4e" d="m560 1357-3 4-2-4v-5l2-3 3 3z"/><path fill="#cab643" d="m560 1383-3 4-2-4c1-3-2-7 2-7 5 0 2 4 3 7"/><path fill="#c7b33c" d="m790 1385-1-5q-1-6 6-4c0 4 2 10-5 9"/><path fill="#dfc94b" d="M486 1355v-5h6v10h-6z"/><path fill="#060503" d="m384 1036-25 1 4-3h17z"/><path fill="#e4cd3f" d="M536 1402h6l-1 9q-6 2-5-4z"/><path fill="#c9b95f" d="m750 1392 6-2 1 7-4 1z"/><path fill="#b8a849" d="M863 1313q5 9-4 7-3-9 4-7"/><path fill="#dfc94b" d="m938 1386-1-8 6-3v11z"/><path fill="#b8a849" d="M1099 1313q2 5-1 7h-4v-6z"/><path fill="#d3bd3a" d="M576 1338h5v8h-7z"/><path fill="#bfae4e" d="M1216 1313q3 5-1 7h-4v-6z"/><path fill="#c0ad3b" d="M687 1313q4 5 0 7h-4v-6z"/><path fill="#c1af45" d="M644 1398q-3-11 5-8v8z"/><path fill="#b8a849" d="m434 1315-2 5-4-1 1-6zm20 2q-1 6-4 3l-4-7q8-3 8 4"/><path fill="#c0ad3b" d="M492 1317q0 5-3 3l-4-7q8-3 7 4"/><path fill="#d3bd3a" d="M1167 1376v6l-4 5-2-6 1-5z"/><path fill="#e4cd3f" d="m839 1330-1-2 1-3 2-2 3 1v6q1 6-5 4z"/><path fill="#c1af45" d="M528 1312q5 1 4 6-1 2-6 4v-9z"/><path fill="#c0ad3b" d="M1152 1318v-5h7l-2 7z"/><path fill="#cebb52" d="M737 1346h-6v-7q10-4 6 7"/><path fill="#060503" d="m308 1143 4-14c4 3 2 7 2 11z"/><path fill="#c1af45" d="M404 1313v7c-3 0-6 2-6-3q-1-6 6-4"/><path fill="#c2b25d" d="M868 1359v-7l2-3 2 3 1 6q-1 5-5 1"/><path fill="#d4be42" d="M320 1319v-6h6q2 11-6 6"/><path fill="#b2ab8b" d="M812 1323q5-1 4 3v9q-9 3-7-6l1-5v8l2 2 2-1zm42 1 2 11h-8v-9l3-2-1 8 2 2 2-2z"/><path fill="#c9b64b" d="m727 1338 1 8h-6q-3-9 4-8zm-220 60-1-8c3 0 6-2 6 2 0 3 1 7-5 6"/><path fill="#d3bd3a" d="m933 1338 1 8h-7v-8z"/><path fill="#cab643" d="m839 1339 6-1v8l-6-1z"/><path fill="#cebb52" d="M812 1338h4l-1 8h-6c1-3-3-7 3-8"/><path fill="#d3bd3a" d="M277 1338v8h-6v-8zm924 8-1-8h8v8z"/><path fill="#dfc94b" d="m819 1325 6-1v11c-2-1-4 3-5-2z"/><path fill="#c9b95f" d="M851 1346c-6-1-1-5-4-8h8c-1 3 4 8-4 8"/><path fill="#b2ab8b" d="m673 1402 6 2-5 7-2-1z"/><path fill="#c9b95f" d="M777 1392c0 7 0 7-8 6l2-8z"/><path fill="#cebb52" d="m813 1364 3 8-1 1-5-2c-1-2-3-6 2-7z"/><path fill="#d3bd3a" d="M894 1338v8h-6v-8z"/><path fill="#c9b64b" d="M899 1338q5 0 5 5l-3 3q-5 1-3-3z"/><path fill="#d4be42" d="M907 1346v-8h7v8zm-200 18 1 8h-7l3-8z"/><path fill="#dfc94b" d="M559 1335q-3 3-4-2v-8l5-1z"/><path fill="#c9b95f" d="M1181 1395q-1-6 3-5 4 0 4 3 1 3-2 5-3 3-5-3"/><path fill="#dac440" d="m1201 1392 7-2v8h-7z"/><path fill="#cab643" d="M527 1338q6-1 5 5c-1 5-3 3-7 3z"/><path fill="#d3bd3a" d="m595 1346-1-8h6v8z"/><path fill="#060503" d="m975 1339 5-2v9q-6 4-5-7"/><path fill="#cab643" d="m1198 1345-6 2v-8q8-4 6 6"/><path fill="#cebb52" d="M1148 1339q3 10-6 7v-8z"/><path fill="#c1af45" d="M690 1406v6l-3 2-4-1v-4z"/><path fill="#c2b25d" d="m809 1314 6-2v8q-7 3-6-6"/><path fill="#c7b33c" d="m507 1346-1-8h5q4 9-4 8"/><path fill="#cab643" d="m858 1344 1-5q8-3 5 7h-5zm319-31 1 8-6-1 2-7z"/><path fill="#060503" d="m315 1124 4-14 2 11z"/><path fill="#dac440" d="M320 1334v-7q-1-4 5-3v5q1 6-5 5"/><path fill="#dfc94b" d="M457 1338h6v8h-5z"/><path fill="#dac440" d="M398 1334v-7q-1-4 5-3v5q1 6-5 5"/><path fill="#c7b33c" d="m473 1345-6 1v-8h6z"/><path fill="#dac440" d="M703 1323h5l-1 11q-4 0-4-4z"/><path fill="#b8a849" d="M1235 1390v6l-2 2-3-2q-1-7 5-6"/><path fill="#c9b64b" d="M529 1364q4 3 2 8h-3l-2-2v-6z"/><path fill="#dfc94b" d="m438 1324 2-1 1 1v-1l2 1v7l-3 3-2-3z"/><path fill="#e3ce52" d="m774 1323 1 1 1 7-3 3-2-3v-8h2z"/><path fill="#e7d041" d="M375 1334h-5v-10h5z"/><path fill="#cab643" d="M522 1364v8h-6v-7z"/><path fill="#c9b64b" d="m785 1364 1 1v7h-6l2-8z"/><path fill="#c0ad3b" d="M472 1364q3 10-5 8l1-8z"/><path fill="#c9b64b" d="M901 1364q5 3 3 7-2 2-4 1l-2-2v-6zm42 0v9l-6-1 2-8z"/><path fill="#cab643" d="m658 1364 1 8h-6v-8zm-9 0v9l-5-2 2-7z"/><path fill="#c9b64b" d="M1195 1364q4 3 2 8h-3l-2-2v-6z"/><path fill="#dfc94b" d="m914 1351-1 8-5 1c0-9 0-9 6-9"/><path fill="#cebb52" d="M232 1319v-7l6 2-1 6z"/><path fill="#dac440" d="M277 1351v8l-6 1v-9z"/><path fill="#dfc94b" d="M718 1339v4q-1 3-4 4l-3-4v-4z"/><path fill="#e6ce3f" d="m963 1383-6 2v-8h5l1 4z"/><path fill="#c7b33c" d="M1133 1338h5v8h-5z"/><path fill="#d7c34a" d="M712 1360v-9q6-1 5 4 0 6-5 5"/><path fill="#d3bd3a" d="M698 1339v7h-7l1-7z"/><path fill="#e7d041" d="m789 1360 1-8 5-1v9z"/><path fill="#dfc94b" d="m1213 1323 3 1v6q1 5-5 4v-9z"/><path fill="#bfae4e" d="m374 1313 1 8-6-2v-5z"/><path fill="#dfc94b" d="M790 1313h7l-2 8-5-1z"/><path fill="#d3bd3a" d="M679 1340v6h-6v-9z"/><path fill="#060503" d="m533 1036-19 1 1-2q9-3 18 1"/><path fill="#dac440" d="m214 1323 3 1v6q1 5-5 4l1-10z"/><path fill="#d7c34a" d="M235 1364q5 2 3 6l-6 4v-9z"/><path fill="#c9b64b" d="m786 1319-6 2 1-8 5 1z"/><path fill="#cebb52" d="M604 1372v-7l3-1q4 1 3 6l-4 3zm123-8v8h-7l4-8z"/><path fill="#d4be42" d="M682 1370q-1-7 6-6v10z"/><path fill="#d9c33b" d="M997 1323h3l1 1v10q-4 0-4-4z"/><path fill="#dac440" d="m919 1323 3 1v6q1 5-5 4l1-10z"/><path fill="#e4cd3f" d="m1222 1323 3 1h2v10q-6 0-5-4z"/><path fill="#060503" d="M387 1070q2-7 9-3l3 3z"/><path fill="#c9b95f" d="m317 1319-7 2v-9l6 3z"/><path fill="#dfc94b" d="m806 1384-1 1-5 1v-10h5zm14-8h4l1 9v1h-6v-2z"/><path fill="#c3b354" d="M723 1320q-4-6 0-7l4 1c0 3 2 7-4 6"/><path fill="#d4be42" d="m500 1364 3 9-6-1 1-8z"/><path fill="#b8a849" d="m1230 1341 4-3 1 6-2 2-3-3z"/><path fill="#c7b33c" d="m1133 1314 2-1q5 1 3 7h-5z"/><path fill="#cebb52" d="m1235 1354-2 7h-2l-1-11q6-2 5 4"/><path fill="#060503" d="M395 1251h-12q1-6 6-4z"/><path fill="#d4be42" d="m678 1364 1 5-4 4-2-4v-4z"/><path fill="#060503" d="m1121 1221-11-7h6q8-1 5 7m-356-2 11-5 1 4-3 3zm-99-183-13 1 3-4c3 1 8-3 10 3"/><path fill="#e7d041" d="m258 1351-1 8h-4l-1-8z"/><path fill="#dac440" d="M703 1376h5l-1 9q-4 1-4-4z"/><path fill="#dfc94b" d="m584 1392 6-3v8q-7 6-6-5"/><path fill="#d9c33b" d="m1225 1338 3 8h-7v-8z"/><path fill="#d4be42" d="m497 1412-1-8 5-2v6q0 4-4 4"/><path fill="#a09b80" d="M679 1353c-1 3 3 8-4 8l-3-3v-5l1-3 5 1q-6 0-4 4l2 4 2-5z"/><path fill="#e7d041" d="m508 1323 3 1v6q1 6-5 4l1-10zm-80 11 1-10 2-1 2 1v6q1 5-5 4"/><path fill="#e2ca3e" d="M1222 1402h5l-1 9q-4 2-4-3z"/><path fill="#d3bd3a" d="M1123 1346v-8h5q4 9-4 8zm-498 30q5-2 5 4l-1 5q-4 1-4-4z"/><path fill="#d7c34a" d="m762 1399-3-9h7c0 4 2 8-4 9"/><path fill="#d3bd3a" d="m687 1338 2 8h-6l-1-7zm-142 47v-6q0-5 5-3c-1 4 3 10-5 9"/><path fill="#e6ce3f" d="M506 1412v-7q0-5 5-3v5q1 6-5 5"/><path fill="#e4cd3f" d="m633 1372 1-6 5-1v7z"/><path fill="#847c51" d="M837 1382v-1l2-4 1 6 2 2 2-2v-7l1 10-4 1z"/><path fill="#e7d041" d="m297 1358-6 1v-7h6z"/><path fill="#dac440" d="M215 1398c-6 0-2-4-3-7h7z"/><path fill="#c9b95f" d="M442 1312q4 5 0 9h-3q-5-5 1-8z"/><path fill="#b8a849" d="m1231 1313 4 1-1 6-3-2z"/><path fill="#d3bd3a" d="M702 1346v-8h6c-1 4 3 9-5 8z"/><path fill="#cebb52" d="M943 1393v5h-7l3-8q3-2 4 3m274 1q1 5-3 4-2 0-3-4-1-3 3-4 4 0 3 4"/><path fill="#cab643" d="M786 1346q-7 2-6-5 1-4 5-3zm-352-5q2 6-3 5l-3-2q-1-4 2-6t4 3"/><path fill="#d3bd3a" d="M659 1340v6h-6v-8l6 1z"/><path fill="#a09b80" d="m810 1360-1-9 5-2 2 3v4q1 7-5 4 7-2 4-8l-3-1-2 2z"/><path fill="#dac440" d="M927 1393c0-5 3-3 6-3v8h-6z"/><path fill="#060503" d="m333 1201-11 8v-7z"/><path fill="#cebb52" d="M316 1346h-6v-8l6 1z"/><path fill="#e6ce3f" d="M585 1372v-6l5-1v7z"/><path fill="#e4cd3f" d="M962 1365v7h-5v-6z"/><path fill="#cebb52" d="M904 1391c-1 3 2 6-2 7q-3 1-4-1v-7z"/><path fill="#d4be42" d="M678 1313q4 9-5 7v-7z"/><path fill="#cebb52" d="m786 1398-6 1 1-9 5 2zm156-60 2 8h-7v-8z"/><path fill="#d3bd3a" d="m988 1346-3-8h7c-1 3 3 8-4 8"/><path fill="#cebb52" d="m610 1345-6 2v-8q7-3 6 6"/><path fill="#d4be42" d="m1128 1312 2 8h-7v-7z"/><path fill="#dac440" d="M917 1396q-1-6 6-5l-1 7z"/><path fill="#d3bd3a" d="m953 1396-2 2c-7 2-4-3-4-7h6z"/><path fill="#d9c33b" d="M521 1346h-5v-8h6z"/><path fill="#dac440" d="M658 1398h-5v-8h6z"/><path fill="#d7c34a" d="M887 1392q2-4 6-2l1 6-3 2h-3z"/><path fill="#cebb52" d="m609 1390-1 8h-4v-7z"/><path fill="#dac440" d="M596 1390c8 0 3 5 5 7l-1 2-6-2z"/><path fill="#cab643" d="m647 1338 3 7-2 2-4-3q-3-4 3-6"/><path fill="#dac440" d="M516 1396v-6h6v9z"/><path fill="#cab643" d="M1119 1313v8l-5-2q-1-3 1-6z"/><path fill="#d7c34a" d="m222 1392 6-4v10h-6z"/><path fill="#d9c33b" d="M1109 1344q-4 5-6-2 0-5 5-4h1z"/><path fill="#060503" d="M553 1037h-18l2-3c5 1 11-2 16 3"/><path fill="#d4be42" d="m500 1312 2 6-3 2-3-2 1-5z"/><path fill="#d7c34a" d="M536 1313h5v6l-5 1z"/><path fill="#dfc94b" d="M291 1320v-7h6l-1 6z"/><path fill="#6c6958" d="M1064 1335h6l2 1 1 1h-19v-2z"/><path fill="#e4cd3f" d="m966 1372 1-7h5v6z"/><path fill="#cebb52" d="M976 1320v-7l4-1 2 7-4 2z"/><path fill="#060503" d="M434 1252h-9l-1-4 7-2z"/><path fill="#d4be42" d="m496 1343 3-5 3 3-2 5q-4 1-4-3"/><path fill="#cab643" d="M649 1313v4l-3 4-3-4 2-4z"/><path fill="#dac440" d="M634 1313h4l1 1c-1 3 2 7-3 7s-3-5-3-8z"/><path fill="#060503" d="m601 1189 13 4-9 1q-4 0-4-5"/><path fill="#e3ce52" d="M257 1372q-8 4-5-7h5z"/><path fill="#dfc94b" d="M805 1372q-8 4-5-7h5z"/><path fill="#e2ca3e" d="M247 1346q-8 4-5-7h5z"/><path fill="#060503" d="m646 1208 11 4-10 2z"/><path fill="#d7c34a" d="M805 1346q-8 4-5-7h5z"/><path fill="#e3ce52" d="M256 1321c-7 1-5-4-5-8h6z"/><path fill="#e4cd3f" d="M208 1346q-7 2-6-6l1-2 5 1z"/><path fill="#d7c34a" d="M238 1339q1 9-6 7-3-9 5-8z"/><path fill="#060503" d="m1229 1290 6-3q7-2 3 6z"/><path fill="#dfc94b" d="m262 1390 7 1-3 5-2 3-3-1v-7z"/><path fill="#d7c34a" d="M355 1314v4l-3 3-3-3v-5z"/><path fill="#060503" d="m855 1283 9 6c-1 5-4 2-7 1z"/><path fill="#dfc94b" d="M943 1351v8l-5 1c1-4-3-10 5-9"/><path fill="#bcae6c" d="m467 1376-1 4-8-8h5z"/><path fill="#d7c34a" d="M497 1360v-8q5-2 4 4 0 4-4 4"/><path fill="#e3ce52" d="M477 1360v-5l2-3 3 3v6z"/><path fill="#dac440" d="m584 1315 6-3-1 8-3 1z"/><path fill="#c7b33c" d="M555 1344v-4l3-2 2 2v7zm4 20 1 6-3 3-2-3 1-6z"/><path fill="#e3ce52" d="M232 1360v-9q6 0 5 5 0 5-5 4"/><path fill="#c1af45" d="M872 1364v6l-1 2-3-2 2-6z"/><path fill="#060503" d="m335 1219 4-12v11z"/><path fill="#c0ad3b" d="M557 1312q4 2 3 6l-3 2-2-2v-5z"/><path fill="#dac440" d="m1044 1314 6-1v6q-7 6-6-5"/><path fill="#bfae4e" d="m868 1317 2-5 2 4-2 4z"/><path fill="#b2ab8b" d="m1227 1359-7 3v-13l7 2q-5 0-5 4 0 5 5 4"/><path fill="#060503" d="m777 1214 12-6 1 6z"/><path fill="#e3ce52" d="M218 1372h-5v-7l3-1 1 1z"/><path fill="#dac440" d="M962 1320q-8 3-5-7h5z"/><path fill="#cab643" d="M872 1338v6l-1 2h-2q-3-5 2-8z"/><path fill="#c9b64b" d="M872 1411q-3 3-4-1c0-3-2-8 2-8 5 0 2 5 2 7z"/><path fill="#e6ce3f" d="M496 1391h6v7h-6z"/><path fill="#d7c34a" d="m511 1313 1 7h-5l-1-6 4-1z"/><path fill="#dfc94b" d="M1148 1313v7l-6 1v-8z"/><path fill="#d9c33b" d="M463 1372h-6c1-3 0-8 6-7z"/><path fill="#dac440" d="M659 1313v7h-6v-7z"/><path fill="#dfc94b" d="m812 1323 2 10-2 1-2-2v-8z"/><path fill="#e4cd3f" d="M541 1346h-6v-7h6z"/><path fill="#847c51" d="m917 1351 1-2 5 1v10l-5-1c7 0 3-5 4-8z"/><path fill="#e3ce52" d="M776 1339v7h-6v-7z"/><path fill="#a09b80" d="M545 1351q3-4 5-1l1 10h-5q5-1 4-6 0-5-5-3"/><path fill="#dfc94b" d="M443 1346h-6v-7h6z"/><path fill="#dac440" d="M668 1320h-6v-7h6zm265-7v7h-6v-7z"/><path fill="#e4cd3f" d="M542 1391v7h-6q-1-10 6-7"/><path fill="#a09b80" d="m630 1359-5 2-2-4v-4q0-6 6-2-5 0-4 4 0 5 5 4"/><path fill="#060503" d="m1114 1240-9 5q-6-3 0-5z"/><path fill="#e7d041" d="m499 1323 2 1v6q1 5-4 4v-10h2z"/><path fill="#e3ce52" d="M923 1320h-6l1-6 3-1h2z"/><path fill="#d4be42" d="M1031 1313v7h-6v-7z"/><path fill="#cebb52" d="M604 1320v-7l3-1q7 3 1 9z"/><path fill="#a09b80" d="m212 1351 5-2 2 3v4q1 7-6 4 5-1 4-6 0-4-5-3"/><path fill="#dac440" d="M600 1313v7h-6v-7z"/><path fill="#cebb52" d="M1021 1313v7l-4 1q-5-5 1-8z"/><path fill="#dfc94b" d="M340 1320v-6l5-1v7z"/><path fill="#dac440" d="M306 1320h-5l1-6 5-1zm680 0v-7h6v7zm-470 0v-7h6v7z"/><path fill="#d7c34a" d="M938 1321q-3-5 1-8h4v7z"/><path fill="#e7d041" d="m853 1323 1 9-2 2-2-2 1-8z"/><path fill="#e4cd3f" d="M1227 1394c1 6-3 4-6 4v-7c3 0 6-2 6 3"/><path fill="#dfc94b" d="m1070 1319-4 1-2-5 3-3h3v6"/><path fill="#d4be42" d="M1109 1313v7h-6v-7z"/><path fill="#060503" d="m692 1228 11 4q-11 5-11-4m42 5 10-5q0 8-10 5"/><path fill="#e3ce52" d="M854 1399c-6-1-6-1-6-8h6z"/><path fill="#6c6958" d="M790 1360h5v-9h-5l1-2 5 1v10z"/><path fill="#b2ab8b" d="m756 1376 1 9-4 2-3-2 2-9v6l2 3 2-4zm98 0 1 10-4 1-3-2 1-9 1 7 2 2 2-2z"/><path fill="#060503" d="m374 1103 3-9 4 9z"/><path fill="#dfc94b" d="M233 1391h4q4 10-5 7z"/><path fill="#a09b80" d="m483 1360-1-6-3-3-2 3v5l-1-7 4-3 3 3zm229 0q5 1 5-5 0-5-5-4l4-2 3 3v3q2 8-7 5"/><path fill="#e7d041" d="M756 1376v5l-2 4-2-3v-6zm98 0v7l-2 2-2-2v-7z"/><path fill="#dac440" d="M212 1352q5-3 5 2 1 6-4 5z"/><path fill="#e7d041" d="m917 1352 5-1c-1 3 3 8-4 8zm-239-19q-4 0-4-4v-7l4 1z"/><path fill="#dfc94b" d="m992 1357-1 2h-5v-7h6z"/><path fill="#060503" d="M195 1285q0 4 4 4l-7 3-2-4z"/><path fill="#cab643" d="m1116 1346-2-7 5-1c-1 3 2 6-3 8"/><path fill="#dac440" d="M545 1352q5-3 5 2 1 5-4 5zm85 7q-5 1-5-4-1-4 4-4z"/><path fill="#a09b80" d="M836 1351q-5-2-6 4t5 5h-6v-10z"/><path fill="#bdae60" d="m748 1392-3 3-4-3 1-2z"/><path fill="#e7d041" d="M1227 1359q-5 1-5-4 0-4 5-4z"/><path fill="#060503" d="M600 1277c0-1 5 0 1-3l6-1v7z"/><path fill="#dac440" d="M325 1338v8l-5-1c0-3-2-8 5-7"/><path fill="#d4be42" d="m472 1320-5 1v-8h5z"/><path fill="#b2ab8b" d="M497 1360q4 0 4-4 1-5-4-5l4-2 2 3v3q1 8-6 5"/><path fill="#060503" d="M841 1277h11l3 4-9-2z"/><path fill="#d4be42" d="m1233 1364 2 1v1c-1 2 1 7-3 7q-4-2-1-8z"/><path fill="#a09b80" d="M1148 1360q-7 3-6-4c0-2-2-6 2-7q5-1 5 4zv-5l-2-3-3 3q-2 6 5 6"/><path fill="#e3ce52" d="M923 1372h-5v-7l3-1 1 1z"/><path fill="#bcae6c" d="M411 1345h3v-5l2 4 3-5-1 8z"/><path fill="#cebb52" d="M692 1396c0-3-2-6 2-6l4 1-2 5z"/><path fill="#a09b80" d="M712 1334q6 1 5-5v-5c4 2 1 6 2 10zm118-11v6q-1 6 5 5l-5 1-2-4z"/><path fill="#b2ab8b" d="M1202 1323v6q0 6 5 5-6 5-7-3z"/><path fill="#c0ad3b" d="m196 1405 2-3 1 3v1l-1 6z"/><path fill="#e7d041" d="M844 1376v7l-2 2-2-2v-7z"/><path fill="#060503" d="m453 1036-9 1 2-5zm-7 0q0-1 0 0"/><path fill="#a09b80" d="M997 1323v7q0 4 4 4l-4 1-2-3z"/><path fill="#847c51" d="m716 1395 3 2-3 2-6-1v-1z"/><path fill="#b2ab8b" d="M320 1335q6 0 5-6v-5l2 2v9z"/><path fill="#a09b80" d="M703 1323v7q0 4 4 4l-4 1-2-3z"/><path fill="#e4cd3f" d="M419 1347v-8l3-1c1 4 3 8-3 9"/><path fill="#e3ce52" d="M815 1398h-5l2-7c5 0 3 4 3 6z"/><path fill="#e6ce3f" d="M511 1372h-4l1-7c7 0 3 4 4 7"/><path fill="#060503" d="m329 1083 4-11 1 11z"/><path fill="#b2ab8b" d="M1222 1323v7q0 4 5 4l-8 2z"/><path fill="#847c51" d="M1211 1334q6 1 5-4l1-6v10l-5 2z"/><path fill="#a09b80" d="M711 1386c6-1 6-1 6-10l1 10zm-273-62v7l2 3 3-3v-7l1 10-4 1-3-2z"/><path fill="#b2ab8b" d="M398 1335q6 0 5-6v-5c4 0 2 4 2 6q2 8-7 5"/><path fill="#a09b80" d="M815 1398c0-2 2-6-3-6l-2 6v-6l7-2zm-44-74v7l2 3 3-3v-7l1 10q-1 2-5 1l-2-2z"/><path fill="#e7d041" d="M1216 1339v6q-7 4-4-6z"/><path fill="#a09b80" d="M212 1334q6 1 5-4v-6c4 2 1 6 2 10zm705 0q6 1 5-4v-6c2 1 3 9 2 10zm-87 42v5q0 5 5 4l-5 2-2-3z"/><path fill="#dac440" d="m1021 1342-2 5-2-1v-7q5-2 4 3"/><path fill="#847c51" d="M839 1334q6 2 5-4v-6l1 10z"/><path fill="#b2ab8b" d="M790 1386c7 0 5-6 5-10l2 10z"/><path fill="#6c6958" d="m197 1354 1-4h1v10h-1z"/><path fill="#e7d041" d="m679 1353-1 1-2 5-2-4q-2-4 4-4z"/><path fill="#060503" d="m445 1104 8 4c-8 3-8 2-8-4"/><path fill="#a09b80" d="M914 1351c-6 0-6 0-6 9l-1-10zm-240-28v7q0 4 4 4l-5 2-1-1zm-177 11q5 1 4-4v-6c4 0 2 4 2 6q2 8-6 4"/><path fill="#847c51" d="M258 1351h-6l1 8h4c0 4-4 2-4 2l-2-11z"/><path fill="#c9b64b" d="M871 1398q-5-3-2-8h2l1 2z"/><path fill="#a09b80" d="M703 1376v5q0 5 4 4l-3 2-3-2z"/><path fill="#060503" d="m1097 1223 5 10c-6 0-6 0-5-10m-757-25-6 3 1-6 5 1z"/><path fill="#847c51" d="M506 1334q6 2 5-4v-6l1 10z"/><path fill="#a09b80" d="M545 1386c8 0 4-6 5-10l1 10zm79-10 1 5q0 5 4 4l-3 2-3-2z"/><path fill="#060503" d="M174 1237h-3l1-8q3 3 2 8"/><path fill="#847c51" d="M428 1334q6 1 5-4v-6l1 10z"/><path fill="#060503" d="M541 1346v-7h-6l7-1z"/><path fill="#d4be42" d="M1031 1340q-1 6-6 2v-4h1z"/><path fill="#bcae6c" d="m261 1398 3 1-5 8v-4z"/><path fill="#060503" d="m1150 1240-8-5 5-1z"/><path fill="#847c51" d="M1127 1323c-6 2-3 7-4 11h5l-4 2-2-4v-5q0-5 5-4"/><path fill="#b2ab8b" d="M1222 1402v6q0 4 4 4l-7 1z"/><path fill="#060503" d="m573 1036-8 1c3-6 3-6 8-1"/><path fill="#b2ab8b" d="M497 1412q4 0 4-4v-6l2 2v8z"/><path fill="#060503" d="m352 1252-6 1 2-5q4-2 4 4"/><path fill="#e6ce3f" d="M1216 1372h-3l-1-7h1c6 0 4 4 4 7"/><path fill="#060503" d="m248 1346-1-7h-5v-3h1q9 3 5 10m72-137-7 5q2-8 7-5"/><path fill="#e6ce3f" d="M844 1372h-3l-1-6 3-1 1 4zm-166 19v6h-4q-2-7 4-7"/><path fill="#060503" d="m393 1036-7 1 1-6zm-2 0q-1 0 0 0m414 336v-7h-5l6-1zm-435-258-7-3q3-3 10 2zm-113 258v-7h-5l6-1z"/><path fill="#6c6958" d="m535 1402 1 5q-1 5 5 5-6 3-7-4z"/><path fill="#b2ab8b" d="M232 1360q5 1 5-4 1-6-5-5l5-2 1 3v9z"/><path fill="#847c51" d="M542 1391q-7-3-6 7l-1-8z"/><path fill="#060503" d="m635 1203 8 3q-8 4-8-3"/><path fill="#b8a849" d="M199 1314v2l-1 4-2-2 2-6z"/><path fill="#a09b80" d="M678 1391q-6 0-4 7l-3-9z"/><path fill="#060503" d="M805 1346v-7l1-1zm-383-94h-8q3-8 6-2z"/><path fill="#847c51" d="M507 1412q5 0 4-5v-5l1 10z"/><path fill="#060503" d="m811 1199 5-2 4 1q-5 4-9 1"/><path fill="#847c51" d="M1216 1372c0-3 2-7-4-7l5-1z"/><path fill="#060503" d="m792 1207 9-4c-1 6-5 4-9 4m-238 189v-5h2v7h-1zm-51-360-8 1 3-4zm-142 76 3 10-4-1zm448-76-6 1v-4c1 3 6-3 6 3"/><path fill="#a09b80" d="M943 1351c-8-1-4 5-5 9l-1-9z"/><path fill="#060503" d="m412 1036-10 1z"/><path fill="#847c51" d="M511 1372c-1-3 3-7-4-7v-1l3-1q5 4 1 9"/><path fill="#060503" d="m466 1255-10-1zm773 2 1 7h-2zm-91-38 3 8-3-2zm-865-5 1-4 4 2v1zm149-178-8 1q4-3 8-1m634 217h-9zm152 37 8-1q-2 4-8 1"/><path fill="#bdae60" d="M297 1352h-6v-2z"/><path fill="#060503" d="m461 1114 3 1-7 1v-4h2zm305 289h-5v-2zm-292-148h-6q3-4 6 0m146-219-2 1h-3l2-4zm-364 285 1-8q5 4-1 8m340-285-6 1q2-6 6-1m127 360 5 1q-5 5-5-1"/><path fill="#8a7b22" d="M208 1346v-7z"/><path fill="#060503" d="m698 1339-6-1 1-2h3zm-30-19v-7q5 3 0 7m-196 0v-7q4 3 0 7m490 0v-7q5 3 0 7"/><path fill="#6c6958" d="M306 1320v-7z"/><path fill="#060503" d="m644 1036-4 1 2-4zm-7 0-7 1z"/><path fill="#bdae60" d="M992 1352h-6q1-5 6 0"/><path fill="#6c6958" d="M277 1351h-6q3-4 6 0"/><path fill="#847c51" d="M669 1351h-6q1-4 6 0"/><path fill="#060503" d="M776 1339h-6q3-5 6 0m215-84-5 1q2-5 5-1m-273 84h-7q3-5 7 0m-275 0h-6q3-5 6 0M1089 1255l-9-1zm-475-219-5 1q2-5 5-1m-122 96 4 2q-4 4-4-2m-328 129v-6zm844-7-6 1zm-799 81v-11zm68 3h-6v-2l5-1zm232-305-2 2-1-2zm68 3-2 1-1-5h1zm261 303 1 6h-3v-5z"/><path fill="#8a7b22" d="m967 1372 5-1 1 1v2z"/><path fill="#6c6958" d="M389 1335h5v2h-6z"/><path fill="#060503" d="m672 1036-4 1q1-5 4-1m59 366v11z"/><path fill="#8a7b22" d="m972 1364-5 1z"/><path fill="#a3922a" d="M742 1402v10z"/><path fill="#060503" d="m1171 1377 1 9z"/><path fill="#bdae60" d="M953 1391h-6z"/><path fill="#060503" d="M443 1253h-5z"/><path fill="#847c51" d="M800 1376v10z"/><path fill="#b8a849" d="M370 1324v10h-1v-10z"/><path fill="#6c6958" d="M350 1335h5l1 1-4 1z"/><path fill="#060503" d="M1216 1339h-4v-3zm-879-303-5 1zm189 226h-5zm547 75h5v1zm-238-300h-3l2-3z"/><path fill="#a09b80" d="M497 1324v9z"/><path fill="#060503" d="M748 1413v-9h1l1 8zm139-88"/><path fill="#625716" d="M535 1313v7zM457 1339l1 7z"/><path fill="#060503" d="m210 1383-2-8zm611-349 1-1 1 1zm-139 291"/><path fill="#847c51" d="M218 1372v-7z"/><path fill="#060503" d="m763 1412-1 1v-2zm125-74v8zm-679 34v-7zm260-253h2q0 2-2 3zm113-83-3 1 1-2zm116 0-3 1 2-3zm116 0-3 1 1-2zm-324-1 3-2v1zm-91 1-2 1 1-5zm429-2h-1l1-1zm-267-3 2 1v1zm226 353"/><path fill="#847c51" d="M923 1372v-7zm-103 4-1 8z"/><path fill="#060503" d="M473 1387v-3h2l1 2v3q-1-2-3-2m-309-34v-4z"/><path fill="#847c51" d="m209 1351-6-1z"/><path fill="#060503" d="M1133 1338v7zm-289-65-3 1zm-58 73v-8z"/><path fill="#847c51" d="m819 1325 1 8z"/><path fill="#060503" d="m465 1036-3 1q1-4 3-1"/><path fill="#8a7b22" d="M663 1412h5z"/><path fill="#847c51" d="M345 1320v-7z"/><path fill="#060503" d="M496 1391v7zm182-27-5 1z"/><path fill="#8a7b22" d="M634 1412h5zm-49 0h5z"/><path fill="#6c6958" d="M923 1320v-7z"/><path fill="#847c51" d="M203 1360h5zM966 1360h6zM663 1360h5z"/><path fill="#060503" d="m1054 1336-4 1zm-738 10"/><path fill="#847c51" d="m972 1350-6 1c1-4 4-1 6-1M633 1360h6zm323 0h6z"/><path fill="#060503" d="m841 1186 2-1-1 2zm-632 134v-5zm991-30 2-1-1 2zm-678 23h-6zm509 0h-6z"/><path fill="#8a7b22" d="m962 1364-5 1v-1z"/><path fill="#6c6958" d="M271 1360h6z"/><path fill="#847c51" d="M291 1320h5z"/><path fill="#6c6958" d="M306 1313h-5z"/><path fill="#060503" d="M164 1301v-3zm945 12h-6zm-945-97v-3z"/><path fill="#594f18" d="M689 1416h-6z"/><path fill="#060503" d="m209 1353 1 6h-1zm103-317-3 1zm-64 322v-6zm594-321h-2l1-2z"/><path fill="#847c51" d="M819 1386h6z"/><path fill="#060503" d="m201 1290 2-1-1 2zm586 68-1-6z"/><path fill="#847c51" d="M345 1313h-5z"/><path fill="#8a7b22" d="m639 1364-5 1v-1z"/><path fill="#847c51" d="M800 1386h5z"/><path fill="#c1af45" d="M476 1389v-2l1-1z"/><path fill="#8a7b22" d="m590 1364-5 1v-1z"/><path fill="#060503" d="m490 1036-3 1z"/><path fill="#847c51" d="M296 1313h-5z"/><path fill="#060503" d="m836 1359 2-4 1 4zm215-106h-3zm-887-184v-3zm84 329v-5zm205-289 3 2z"/><path fill="#847c51" d="M639 1350h-5z"/><path fill="#a09b80" d="M678 1397v-5z"/><path fill="#060503" d="M933 1313h-6zm-147 85v-5zm-186-34h-6zm53-43 6-1z"/><path fill="#8a7b22" d="M957 1372h5zm-372 0h5z"/><path fill="#060503" d="M522 1364h-6zm470-51h-6z"/><path fill="#8a7b22" d="M634 1372h5z"/><path fill="#060503" d="m927 1320 5 1zm59 1 6-1zm-386-8h-6z"/><path fill="#847c51" d="M962 1350h-5z"/><path fill="#060503" d="m1025 1321 6-1zm-92 43h-6z"/><path fill="#847c51" d="M340 1320h5z"/><path fill="#060503" d="M516 1320h6zm583-65h-3zm-878 137"/><path fill="#625716" d="m536 1321 5-1z"/><path fill="#a09b80" d="M908 1360h5z"/><path fill="#060503" d="M594 1320h5zm-385 78v-5zm450-85h-6zm-294-211 3 1zm313 210-4 1z"/><path fill="#847c51" d="M506 1372h4z"/><path fill="#060503" d="M831 1193"/><path fill="#6c6958" d="M301 1320h4z"/><path fill="#060503" d="m639 1363-4 1zm19 1h-5zm10 0h-5zm29-1-5 1zm-78 1h-5zm-29-1-4 1zm-10 1h-5z"/><path fill="#a09b80" d="M938 1360h4z"/><path fill="#060503" d="M894 1364h-4z"/><path fill="#a3922a" d="M559 1324h-3z"/><path fill="#060503" d="M952 1364h-5zm10-1-4 1z"/><path fill="#a09b80" d="M477 1360h5z"/><path fill="#060503" d="m939 1321 4-1zm-385-286-1-1h1zm578 279 1 4zm-904 50h-4zm19 0h-5zm881-52-4 1zm-57 7-1-5zm-285 0v-5zm-613-70-2 1zm75 70v-5zm28 45h-5zm791-43 3-1zm-49 0 3-1z"/><path fill="#6c6958" d="M918 1320h3z"/><path fill="#060503" d="m701 1036-2 1zm-476-3-1-1zm593 3-2 1v-2zm-214 284 3 1zm-247-284-2 1zm337 0-2 1z"/><path fill="#a09b80" d="M835 1324h-3z"/><path fill="#060503" d="M317 1319v-3zm286-283-2 1zm-439 351v-2zm955-74h-3zm88 51h-4zm-264 0h-4zm214-1-4 1zm9 0-4 1zm-959 0-4 1zm1020 1h-4zm6 0-2 1z"/><path fill="#847c51" d="m216 1364-3 1h-1l1-1z"/><path fill="#060503" d="M164 1092v-2zm832 163h-2zm-832 76v-2zm102 32-4 1zm15 1 4-1v1zm554 0h-4zm-41-1-4 1zm-630 46v-2zm552-46-4 1zm-253 1h-4zm78 0h-4zm-50-1-4 1zm20-103h-2zm-39 104h-3z"/><path fill="#6c6958" d="m921 1312-3 1z"/><path fill="#060503" d="M164 1198v-2z"/><path fill="#625716" d="M541 1313h-4z"/><path fill="#060503" d="M649 1313h-3zm294 0h-3zm127-209h2zm-90 208-4 1zm-348-110h3zm-468 93v-2zm693-5-1 1zm-126 123h4zm-399-185 1-3zm775 5 2-1zm99 57 2-1zm-53-55 1 2zm86 14"/><path fill="#bdae60" d="M281 1364h4z"/><path fill="#060503" d="M600 1273h-2zm421 40h-2z"/><path fill="#847c51" d="m431 1323-2 1z"/><path fill="#060503" d="M963 1383v-2h2zm63-46-1 1v-2h1zm-338 0v-2l2-2zm64 76h3zm-536-50-2 1z"/><path fill="#847c51" d="M1212 1372h3zm-294 0h3zm-705 0h3z"/><path fill="#060503" d="M766 1364h-3zm-159-52-3 1zm-64-148v2h-1zm-43 148-3 1zm285 52h-3z"/><path fill="#847c51" d="m921 1364-3 1v-1z"/><path fill="#060503" d="m862 1363-3 1zm-119 50h3zm158-50-3 1zm-177 50h3zm-21 0h3zm210-49h-3zm-361-99h-1v-1zm369 98-3 1zm100-109h-3zm-813 158 1-2zm987-49-3 1zm-18 1h-3zm-470 0h-3zm-472 0h-3zm275-1-2 1zm19 0-3 1zm-89-42h1zm737-9h-2zm-628 51-3 1zm178 1h-3zm-168 0h-3zm48 0h-3zm463-51h-2zm-441 51h-3zm20 0h-3z"/><path fill="#a09b80" d="m214 1323-1 1h-1z"/><path fill="#060503" d="m979 1363-2 1zm-85-25v-2zm-149 25-2 1zm-245 1h-2z"/><path fill="#8a7b22" d="M203 1338v2z"/><path fill="#060503" d="m899 1337-1 1v-2h1zm210 1v-2zm-354 26h-2zm117 0h-2zm-49-1-2 1zm188-25v-2h1zm63-84h-2z"/><path fill="#b8a849" d="M375 1324h-2z"/><path fill="#847c51" d="m508 1323-1 1z"/><path fill="#8a7b22" d="m586 1323-1 1z"/><path fill="#060503" d="M1148 1313"/><path fill="#a09b80" d="M713 1323"/><path fill="#847c51" d="m841 1323-1 1z"/><path fill="#a09b80" d="M918 1323"/><path fill="#8a7b22" d="m958 1323-1 1z"/><path fill="#a09b80" d="M1001 1324"/><path fill="#8a7b22" d="M1051 1324h-2z"/><path fill="#847c51" d="m1213 1323-1 1z"/><path fill="#b2ab8b" d="M1226 1324"/><path fill="#060503" d="M1146 1363h-2zm-428 40-1-1zm-490-65v-2l1-1zm214-26-2 1zm690 12v2zm0 28v2zm-246-85h-1zm-159 70h1zm-445-120v-1zm0-1v-2zm-91-3q1 0 0 0m0-6q1 0 0 0m554 21 1-1zm-404-26v-1zm257-15 2 1zm-406-7q0 1 0 0m-1-11q1 0 0 0m963 72h-2zm83 2q0-1 0 0m-839 6q1 0 0 0m840 4q0-1 0 0m-678 14-1-1zm-369 6q1 0 0 0m1 5q0 1 0 0m236-245q0-1 0 0m51 1q0 1 0 0m-5 0q-1 0 0 0m30-1q-1 0 0 0m-210 0q-1 0 0 0m-3-1q0 1 0 0m947 250q-1 0 0 0m-142-218q1 0 0 0m-904 11q-1 0 0 0m137 9v-1zm-2 4 1-1zm673 9q0-1 0 0m-527 24q1 0 0 0m-103 2q-1 0 0 0m-63 21 1-1zm-20 202 1-1zm867-9h1zm31 27"/><path fill="#e3ce52" d="M211 1365"/><path fill="#060503" d="m604 1372 1 1zm361 8v1zm-703 10-1 1zm691 6"/><path fill="#6c6958" d="m360 1323-1 1z"/><path fill="#060503" d="M585 1286q0-1 0 0m610 6q-1 0 0 0m-575 21-1-1zm333 0-1-1zm23 7 1 1zM855 1398"/><path fill="#a09b80" d="M499 1323h-1z"/><path fill="#8a7b22" d="M590 1324"/><path fill="#a09b80" d="M774 1323"/><path fill="#8a7b22" d="M1046 1323"/><path fill="#060503" d="M369 1324"/><path fill="#dac440" d="M212 1335"/><path fill="#a3922a" d="M559 1335"/><path fill="#8a7b22" d="M1050 1335"/><path fill="#060503" d="M281 1336v1l-1 1zm168 1h1zm127 0h1zm296 0h1zm61 0h1z"/><path fill="#e8d040" d="M389 61"/><path fill="#e3d48d" d="m365 1360-2-3h13l-1 3zm1-21q6-4 13-1z"/><path fill="#bcae6c" d="m264 1398 2-2zm-6 11 1-1z"/><path fill="#dfc94b" d="M991 1359"/><path fill="#d9c33b" d="m980 910-2 35-3 8h-1l-4-16-1-131 3-16h3l3 11 2 12z"/><path fill="#e4cd3f" d="m339 786 5-15q9-14 20-1 10 17 14 35l13 51v6h-33q-5 0-6-4c-6-17-13-34-13-53z"/><path fill="#e6ce3f" d="m1263 828 1 7v62q0 11-5 21-3 10-16 10-14 1-20-11-7-14-7-30l-1-34q1-18 10-35 6-9 18-12 15-1 19 17zm-585 21q1-21 7-40 7-15 20-11l10 8q13 17 18 38 9 30 8 63-1 15-7 31c-6 17-20 14-29 3q-11-14-16-32-10-28-11-60"/><path fill="#050501" d="M643 507q33-39 83-34 30 2 52 23 25 21 30 53 6 35-12 66-13 25-40 40-16 8-34 10-36 4-64-16a88 88 0 0 1-39-61l-2-10-1-2-3 2-1 4q-9 54-58 76a90 90 0 0 1-100-14 88 88 0 0 1-30-51q-8-38 12-71a97 97 0 0 1 104-47q36 9 57 38 12 18 15 41l4 8 4-8q4-26 23-47m51 113 3 8q7 14 18 24 12 6 21-3l6-9 6-29-1-36q-3-29-14-57-6-15-18-28-13-12-25 1-9 12-10 27l-1 38q2 33 15 64M494 491q-12 18-12 38-1 19 1 38 4 35 19 65 6 14 20 23 12 6 20-5 11-18 11-40 2-44-13-86-7-17-18-31-15-15-28-2"/><path fill="#050401" d="m281 498-5-20h57q18-1 17 17v10l3 5 6-2 13-16c10-14 33-22 49-18l17 6q9 4 4 12l-14 30-9 17-3 5q-5 5-8 0l-6-8q-12-15-31-12-15 5-19 19l-2 15 1 77q-1 14 7 28l-9 1h-65l-7-1 4-13 1-31-1-115z"/><path fill="#010100" d="m166 667-4-1-3-2q-28-6-47-29l-4-2v-1l-4-6-15-29q-8-24-9-49-5-50 14-95 15-36 49-52 18-8 39-5l34 7q11 2 23 2 12-1 23-9 10-5 10 6l-3 16-6 19-1 2-2 2v1l-7 10-1 1-5 5-1 1-4 3h-1l-8 2-30-3-29-13q-16-9-32-14-30-8-37 22-3 19 2 38l1 2v4l2 7v2l13 35 8 14v1l1 3 19 24q27 26 65 23 18-2 30-16 19-25 11-57-1-7-8-9-8-1-13 6l-6 9q-9 15-25 20l-3 2h-4l-13-1-15-5h-1l-2-2h-1l-4-5q-13-16-9-36 3-12 14-6 15 10 32 3 17-8 35-10 14 0 26 8 7 8 10 18v68l-1 7-6 17-1 2-8 10-13 15-1 1-17 12h-2l-17 5-19 3h-13z"/><path fill="#49400e" d="m263 437 6-19 3-16q0-10-10-6-11 8-23 9t-23-2l-34-7q-21-4-39 5a93 93 0 0 0-49 52q-19 45-14 95 1 25 9 49l15 29 4 6q-8-8-13-17-14-28-17-59l-1-43a173 173 0 0 1 29-84q21-29 56-35 22-2 42 4 15 5 30 5 14 0 26-8 6-2 10-1 4 3 4 9-2 18-11 34"/><path fill="#49400e" d="m202 564 3-2q15-5 25-20l6-9q5-7 13-6 7 2 8 9 8 31-11 57-12 14-30 16-39 4-65-23l-19-24-1-3 11 13q16 24 43 32c19 6 38 6 55-8q11-10 15-26 5-17 0-33 0-7-7-8-5 0-9 4l-8 11q-9 13-24 19z"/><path fill="#49400e" d="M271 528c-4-6-5-13-11-18q-12-9-26-8-18 2-35 10-17 7-32-3-11-6-14 6-4 20 9 36l4 5q-13-8-14-22-2-9-1-20l5-7q4-4 9-1l6 3q16 8 32-1 15-7 32-8c15-1 34 8 36 28m-162-32-2-2q-5-19-2-38 7-30 37-22l32 14 29 13 30 3 8-2q-4 4-10 4-27 1-51-13-19-12-39-17-23-6-31 13-4 8-4 17zm-1 137 4 2q19 23 47 29l3 2q-21-3-38-17zm155-13 6-17 1-7v-35h1c1 20 4 39-6 58zm-132-62-8-14-13-35 5 10zm54 110 19-3 17-5q-16 11-36 8m57-21 12-15 8-10q-7 15-20 25m-72-88 15 4q-8 2-15-4m17 5h11q-5 4-11 0m-76-57-3-7zm136-49 5-5zm-81 209 6 1zm76-205 4-3zm19-21 1-2zm-94 116 2 1z"/><path fill="#030300" d="M1165 518q-12 7-14 22l-1 40v51q0 12 5 24l1 3-8 2h-73l4-8 3-22-1-128q1-14-7-28h6l60 1q8 1 9 12l1 14 2 5q4 1 6-1l14-16c13-18 44-24 63-15q14 7 19 22 5 14 5 27l1 34 2 83 4 18q-38 2-80 1c8-14 7-27 7-40l-2-88q-5-20-26-13"/><path fill="#322d10" d="m1025 609 1-10q-2 6 5 6c3 8-2 15-4 23q0-7-6-5l1-8 2-5c0 3-3 7 2 8l4-5q0-5-5-4"/><path fill="#625716" d="M1021 623q6-2 6 5l-2 2-6 1-1-1v-3zm4-14q5-1 5 4l-4 5c-5-1-2-5-2-8z"/><path fill="#322d10" d="M1030 586c1 3-2 7 4 8 0 3 3 7-2 10q3-8-5-7z"/><path fill="#8a7b22" d="M1027 597q8-1 5 7l-1 1q-7 0-5-7z"/><path fill="#322d10" d="m1019 632 6-2q-1 5-6 2m19-74q-4-2 0-4zm-1 31 1-1 2-1-3 5zm-20 38 1 3zm27-122v-3zm-27-15h-1l-12-1q8-7 13 1"/><path fill="#010100" d="M1280 397c20-16 46-6 52 18q6 30-13 54-8 12-23 12h-3l-1-1 2-2q6-8 5-18-1-6-7-7-18-4-22-22-6-21 10-34m10 83"/><path fill="#030301" d="M1011 383q23-13 44 2 17 13 14 34c-1 16-11 30-29 33q-23 5-38-13-4-5-6-11-6-21 8-39z"/><path fill="#050404" d="M1093 1210v-2zm-794-32q0 1 0 0m672 77q1 0 0 0m-21 1q1 0 0 0m-2 1q1 0 0 0m-272-33q1 0 0 0m-2-1q1 0 0 0m-57-23"/><path fill="#b8a849" d="M370 1334h4z"/><path fill="#847c51" d="M209 1353v5z"/><path fill="#e7d041" d="M752 1357v-2l2-4 2 4-1 4zm98-4h4l-1 6-3-2z"/><path fill="#e3ce52" d="M810 1360v-7l2-2 3 1q3 6-5 8"/><path fill="#dfc94b" d="M1148 1360q-7 0-5-6l3-3 2 3z"/><path fill="#050404" d="M446 1036q0-1 0 0m-55 0q-1 0 0 0m29 214"/><path fill="#e2ca3e" d="M693 620q-11-31-14-64l1-38q0-15 10-27 12-13 25-1 12 12 18 28 11 28 14 57l1 36-6 29-6 9q-9 9-21 3-11-10-18-24z"/><path fill="#9d8d28" d="M494 490q13-12 28 3 11 14 18 31 15 42 13 86 0 22-11 40-9 11-20 5-14-8-20-23-15-30-19-65-2-19-1-38 0-20 12-39m40 29q-5-11-13-22-16-20-28 2-10 23-8 47l1 10q1 18 5 36l13 38q5 12 16 20 12 8 20-3 10-19 10-39 2-45-16-89"/><path fill="#e8d040" d="M535 520q17 43 15 88 0 20-10 39-8 11-20 3-11-8-16-20l-13-38q-4-18-5-36l-1-10q-2-24 8-47 12-22 28-2 8 11 14 23"/></svg>
